<?xml version="1.0" standalone="no"?>
<!DOCTYPE svg PUBLIC "-//W3C//DTD SVG 1.1//EN" "http://www.w3.org/Graphics/SVG/1.1/DTD/svg11.dtd" >
<svg xmlns="http://www.w3.org/2000/svg">
<metadata></metadata>
<defs>
<font id="ocean_sans_stdbook_italic" horiz-adv-x="681" >
<font-face units-per-em="2048" ascent="1485" descent="-563" />
<missing-glyph horiz-adv-x="501" />
<glyph unicode="fi" horiz-adv-x="1042" d="M-195 -375l21 105q31 -10 76 -11q51 0 87 27t63.5 85t49 151.5t45.5 224.5l129 698h-153l22 107h150l24 129q12 55 29 117.5t52.5 115.5t97 88t161.5 35q10 0 44 -2t81 -14l-24 -103q-27 6 -48.5 9.5t-31.5 3.5q-45 0 -73.5 -19.5t-47 -51.5t-29 -73t-18.5 -82l-31 -153 h492l-201 -1012h-184l180 905h-307l-133 -665q-27 -129 -54.5 -243t-73.5 -199t-116 -135t-180 -50q-35 0 -58.5 4t-40.5 8zM834 1419l151 105l98 -154l-149 -104z" />
<glyph unicode="fl" horiz-adv-x="1060" d="M-195 -375l21 105q31 -10 76 -11q51 0 88 27t63.5 85t48 151.5t45.5 224.5l129 698h-153l22 107h150l24 129q12 55 29 117.5t52.5 115.5t97 88t161.5 35q16 0 50 -3t77 -13l-24 -103q-33 10 -55.5 11.5t-26.5 1.5q-45 0 -73.5 -19.5t-47 -52.5t-29 -73t-18.5 -81 l-29 -153h324l94 473h182l-295 -1485h-184l180 905h-323l-133 -665q-25 -123 -52.5 -237t-72.5 -201t-117 -138t-182 -51q-35 0 -58.5 4t-40.5 8z" />
<glyph unicode="&#xd;" horiz-adv-x="501" />
<glyph unicode=" "  horiz-adv-x="501" />
<glyph unicode="&#x09;" horiz-adv-x="501" />
<glyph unicode="&#xa0;" horiz-adv-x="501" />
<glyph unicode="!" horiz-adv-x="561" d="M59 129l168 115l111 -170l-168 -115zM215 408q12 55 23.5 116.5t22.5 123t19.5 117.5t12.5 99q18 131 20 226.5t-20 189.5l164 111l108 -166q-12 -16 -27.5 -38t-33 -55.5t-35.5 -82t-39 -115.5q-18 -61 -36.5 -135t-36 -149t-32 -142.5t-22.5 -116.5z" />
<glyph unicode="&#x22;" horiz-adv-x="813" d="M268 844q6 37 14.5 96t8.5 152q0 66 -5 107.5t-14 84.5l144 96l98 -145q-39 -59 -66.5 -118.5t-48 -113t-33 -99.5t-20.5 -79zM594 844q6 37 14 96t8 152q0 66 -4 107.5t-14 84.5l145 96l97 -145q-39 -59 -67 -118.5t-48 -113t-32.5 -99.5t-18.5 -79z" />
<glyph unicode="#" horiz-adv-x="1366" d="M111 336v115h225l78 378h-303v113h327l86 410h115l-88 -410h432l84 410h115l-86 -410h200v-113h-225l-78 -378h303v-115h-325l-84 -406h-117l88 406h-432l-84 -406h-117l86 406h-200zM449 451h432l77 378h-430z" />
<glyph unicode="$" horiz-adv-x="1003" d="M43 84l53 96q59 -33 105.5 -50t101.5 -30l184 533q-70 57 -122 103t-87.5 89t-53 89.5t-17.5 101.5q0 63 29.5 126.5t87 115t142.5 82t196 30.5q25 0 47 -1t39 -1l77 217h95l-80 -229q49 -12 79.5 -22.5t73.5 -30.5l-43 -101q-53 23 -89 33t-60 16l-170 -489 q137 -104 209.5 -193.5t72.5 -199.5q0 -86 -34.5 -157t-97 -123t-149.5 -80.5t-190 -28.5q-29 0 -50 1t-34 3l-90 -250h-94l92 264q-63 12 -113.5 30.5t-109.5 55.5zM385 1044q0 -61 39 -110t131 -121l154 447q-84 6 -145.5 -10.5t-101.5 -47.5t-58.5 -73t-18.5 -85zM395 90 q94 -6 158.5 14.5t104.5 57.5t57.5 84t17.5 92q0 70 -46 123t-122 121z" />
<glyph unicode="%" horiz-adv-x="1437" d="M104 856v2q0 55 16.5 142t55.5 169t103.5 141.5t162.5 59.5q59 0 96 -21.5t58.5 -53t30 -68.5t8.5 -68q0 -35 -6 -88t-21.5 -111.5t-40 -118t-61.5 -106.5t-87 -76.5t-116 -29.5q-53 0 -90 18.5t-61.5 50t-36 72.5t-11.5 86zM135 -10l1116 1380h113l-1116 -1380h-113z M236 811q0 -6 1 -23.5t8 -36t21.5 -31.5t42.5 -13q47 0 83 62t60.5 145t38 164t13.5 118t-13.5 67.5t-54.5 30.5q-47 0 -84 -55t-62.5 -132t-39.5 -159t-14 -135v-2zM862 215v2q0 55 16.5 143.5t56.5 170t104.5 141t162.5 59.5q57 0 95 -21.5t59.5 -53t30 -68.5t8.5 -68 q0 -35 -6.5 -88t-21.5 -111.5t-39.5 -118t-61.5 -106.5t-87.5 -76.5t-115.5 -29.5q-53 0 -91 18.5t-62.5 50t-36 72.5t-11.5 84zM993 172q0 -8 1 -25.5t9.5 -36t22.5 -31.5t43 -13q31 0 58.5 29.5t49 75.5t38 103.5t27.5 111.5t16.5 100t5.5 69q0 39 -14.5 69.5t-55.5 30.5 q-47 0 -84 -55t-62.5 -132t-40 -159t-14.5 -135v-2z" />
<glyph unicode="&#x26;" horiz-adv-x="1347" d="M43 356q0 158 107.5 272.5t302.5 213.5q-29 66 -45.5 116t-16.5 107q0 70 33 126t89 96t133 61.5t163 21.5q51 0 116.5 -10t133.5 -33l-39 -104q-41 14 -92 25.5t-113 11.5q-117 0 -179.5 -51.5t-62.5 -129.5q0 -23 4.5 -46t14.5 -55t28.5 -76t49.5 -105l217 -441 q82 109 126 215.5t60 171.5h-174l21 109h444l-21 -109h-155q-8 -31 -25.5 -83t-47.5 -118.5t-74 -140t-105 -145.5q14 -25 33.5 -53.5t43 -53t54.5 -41t70 -16.5t88 19l20 -111q-23 -6 -61.5 -13t-79.5 -7q-57 0 -101.5 14t-79 36.5t-61 52.5t-49.5 58q-86 -70 -175 -115.5 t-206 -45.5q-86 0 -157.5 29.5t-123 80.5t-80 120t-28.5 146zM238 408q0 -70 21.5 -125.5t58 -94t85 -60.5t101.5 -22h2q66 0 126 32t130 87q-53 94 -85 157.5t-46 92.5l-137 281q-45 -27 -90.5 -57.5t-82 -72.5t-60 -95.5t-23.5 -122.5z" />
<glyph unicode="'" horiz-adv-x="487" d="M268 844q6 37 14.5 96t8.5 152q0 66 -5 107.5t-14 84.5l144 96l98 -145q-39 -59 -66.5 -118.5t-48 -113t-33 -99.5t-20.5 -79z" />
<glyph unicode="(" horiz-adv-x="491" d="M90 225q0 158 28.5 325t88 335t154 331.5t225.5 315.5l86 -57q-98 -125 -182 -271.5t-146.5 -309.5t-98.5 -339t-36 -362q0 -145 24.5 -288t73.5 -278l-100 -30q-41 102 -63.5 197t-35 178t-15.5 147.5t-3 105.5z" />
<glyph unicode=")" horiz-adv-x="491" d="M-162 -362q96 123 180 268t147.5 307t99.5 339t36 366q0 297 -98 567l100 31q39 -102 62.5 -197.5t36 -178.5t15.5 -147.5t3 -105.5q0 -158 -29 -325t-88 -335t-153.5 -331.5t-225.5 -315.5z" />
<glyph unicode="*" horiz-adv-x="952" d="M217 1305l143 41q12 -25 27.5 -47.5t39.5 -48t59.5 -54.5t91.5 -61q6 29 10 61.5t4 79.5q0 72 -13.5 109.5t-21.5 54.5l125 84l84 -125q-57 -59 -87 -125t-46 -148q68 8 115 22.5t79.5 30t52 31t31.5 27.5l119 -92l-94 -121q-41 23 -85 33t-85 13t-76 2t-53 -1 q27 -59 53.5 -99t51 -66.5t47 -43t42.5 -26.5l-51 -140l-141 52q2 10 5 29.5t3 35.5q0 63 -17.5 120.5t-41.5 113.5q-43 -45 -71 -79t-45 -62.5t-26.5 -56.5t-17.5 -58l-152 4l5 151q82 10 148.5 52t119.5 92q-49 25 -88 40t-76 23q-35 8 -66.5 8t-60.5 -2z" />
<glyph unicode="+" horiz-adv-x="1366" d="M158 612v121h479v484h121v-484h485v-121h-485v-479h-121v479h-479z" />
<glyph unicode="," horiz-adv-x="499" d="M-41 -270q18 23 41 48t49 56q18 23 44 59.5t26 75.5q0 41 -27 78q-10 14 -28.5 40t-30.5 42l164 119q10 -18 23 -35.5t24 -36.5q39 -59 39 -113q0 -66 -40 -128t-85 -109q-41 -45 -77 -82t-65 -72z" />
<glyph unicode="-" horiz-adv-x="546" d="M66 459l30 147h391l-30 -147h-391z" />
<glyph unicode="." horiz-adv-x="505" d="M33 129l168 115l108 -170l-168 -115z" />
<glyph unicode="/" horiz-adv-x="651" d="M-98 -133l780 1618h133l-780 -1618h-133z" />
<glyph unicode="0" horiz-adv-x="1001" d="M82 395v2q0 66 12 164t39 205.5t71 215.5t109.5 195t153.5 140t201 53q94 0 156.5 -37t99.5 -94t51 -126t14 -132t-11 -161.5t-37 -210t-69 -223.5t-106.5 -203t-150.5 -147t-199 -56q-92 0 -155.5 36.5t-103.5 95t-57.5 133t-17.5 150.5zM274 309q0 -43 8.5 -85 t27 -73.5t48 -51t72.5 -19.5q61 0 111.5 59.5t91.5 151.5t71.5 204.5t51 220t31 198t10.5 135.5q0 18 -2 55t-16.5 73.5t-43 64.5t-82.5 28q-61 0 -113.5 -52.5t-94.5 -137.5t-73.5 -190.5t-53 -212t-33 -203.5t-11.5 -163v-2z" />
<glyph unicode="1" horiz-adv-x="1001" d="M229 1092l486 260h133l-270 -1352h-191l238 1186l-349 -193z" />
<glyph unicode="2" horiz-adv-x="1001" d="M-49 0l22 102q43 35 100.5 87.5t121 110.5t128 121.5t123 122t105.5 110t74 87.5q47 59 87 137t40 175q0 102 -64.5 152t-150.5 50q-53 0 -110.5 -14t-129.5 -55l-47 98q78 41 157.5 63.5t178.5 22.5q100 0 171.5 -25.5t119 -68.5t70 -97.5t22.5 -111.5 q0 -59 -19.5 -114.5t-47.5 -103.5t-57.5 -85t-49.5 -59q-35 -37 -86.5 -85.5t-109.5 -101.5t-118.5 -107.5t-115 -101.5t-97.5 -84t-65 -53h655l-33 -172h-874z" />
<glyph unicode="3" horiz-adv-x="1001" d="M-6 80l51 96q78 -41 144.5 -63.5t144.5 -22.5q82 0 145.5 30t106.5 79t64.5 111.5t21.5 125.5q0 92 -44 140.5t-108 70.5q-43 14 -95 17.5t-144 3.5l20 100q55 0 96 1t73 6t60.5 16.5t59.5 31.5q61 41 92 106.5t31 137.5q0 94 -62.5 142t-152.5 48q-49 0 -98.5 -13 t-108.5 -44l-43 100q41 20 115.5 45t181.5 25q90 0 159.5 -22.5t116.5 -61.5t72 -89t25 -107q0 -63 -23 -122t-65 -107t-103 -83t-137 -53q98 -20 154.5 -59t85 -83t36.5 -85t8 -66q0 -76 -31.5 -155.5t-96 -146.5t-163 -108.5t-233.5 -41.5q-100 0 -189 26.5t-167 73.5z " />
<glyph unicode="4" horiz-adv-x="1001" d="M20 420l21 104l754 828h131l-164 -811h156l-23 -121h-158l-82 -420h-178l84 420h-541zM199 541h387l108 538z" />
<glyph unicode="5" horiz-adv-x="1001" d="M49 78l53 96q78 -43 144.5 -62.5t132.5 -19.5q88 0 152.5 36t106.5 92t62.5 123t20.5 128q0 111 -71.5 180.5t-196.5 69.5q-45 0 -103.5 -11.5t-130.5 -52.5l139 695h641l-34 -168h-525l-75 -379q41 16 85 22.5t87 6.5q82 0 152.5 -25t122.5 -70t83 -109.5t31 -144.5 q0 -84 -33 -174t-100.5 -163.5t-168 -120.5t-235.5 -47q-66 0 -118 10t-94 25.5t-73.5 33t-54.5 29.5z" />
<glyph unicode="6" horiz-adv-x="1001" d="M104 412q0 154 43 322.5t126 310t207 233.5t286 92q68 0 131.5 -15.5t122.5 -49.5l-49 -99q-23 12 -73 33t-118 21q-82 0 -152.5 -44.5t-128 -121t-99.5 -183t-66 -231.5q59 84 138 120t151 36q61 0 118.5 -22.5t101.5 -67t70.5 -109t26.5 -148.5q0 -90 -28.5 -181 t-87 -163.5t-145.5 -118.5t-204 -46q-98 0 -168.5 36.5t-116 97t-66 138.5t-20.5 160zM297 297q0 -102 51 -159.5t129 -57.5q68 0 118 42t83 103.5t49 132t16 125.5q0 106 -50 169t-128 63q-59 0 -108 -36t-85 -94.5t-55.5 -133t-19.5 -152.5v-2z" />
<glyph unicode="7" horiz-adv-x="1001" d="M129 0l768 1182h-700l32 170h867l-21 -101l-792 -1251h-154z" />
<glyph unicode="8" horiz-adv-x="1001" d="M53 319q0 49 15.5 107.5t53.5 113t105.5 99.5t171.5 72q-41 16 -78.5 39.5t-66.5 56.5t-45 77t-16 101q0 72 28.5 140.5t84.5 123t138 88t187 33.5q90 0 158.5 -23.5t115.5 -63.5t70.5 -94t23.5 -114q0 -78 -26.5 -138t-70.5 -106.5t-99 -78t-113 -47.5q68 -20 114 -53.5 t73.5 -72t39 -80.5t11.5 -79v-2q0 -84 -34 -163t-95.5 -140.5t-150.5 -98t-199 -36.5q-104 0 -179 29.5t-123.5 78.5t-71 109.5t-22.5 121.5zM256 305q0 -59 16.5 -101t44 -70t63.5 -41t73 -13q74 0 126 41t84.5 98t48 119.5t15.5 105.5q0 41 -12.5 79t-37 66.5t-61 46 t-86.5 17.5q-63 0 -114 -31.5t-86 -83t-54.5 -112.5t-19.5 -119v-2zM379 952q0 -53 15.5 -91t41 -61.5t57 -34.5t62.5 -11q63 0 110.5 33.5t77 84t44 107.5t14.5 104q0 33 -10.5 66t-31 59.5t-54 44t-78.5 17.5q-63 0 -110.5 -32t-78 -79t-45 -102.5t-14.5 -102.5v-2z" />
<glyph unicode="9" horiz-adv-x="1001" d="M55 45l49 98q23 -12 74 -32.5t119 -20.5q78 0 147.5 42t127 118t100.5 182.5t69 237.5q-59 -82 -137 -119t-149 -37q-61 0 -118.5 22.5t-102 66.5t-71 108.5t-26.5 148.5q0 90 29 181.5t87 164t145 118.5t204 46q96 0 166 -35t115 -94t66.5 -137t21.5 -164 q0 -100 -18.5 -209.5t-54.5 -216t-91 -204t-128 -170t-165 -116.5t-203 -44q-137 0 -256 65zM332 866q0 -109 51 -170t129 -61q57 0 106.5 35t85 93t55 133t19.5 155v2q0 94 -46 155.5t-132 61.5q-70 0 -121 -43t-84 -105.5t-48 -132t-15 -123.5z" />
<glyph unicode=":" horiz-adv-x="585" d="M74 129l168 115l108 -170l-168 -115zM233 936l168 117l109 -170l-168 -115z" />
<glyph unicode=";" horiz-adv-x="585" d="M0 -272q20 23 41.5 49t48.5 55q18 23 45 59.5t27 75.5q0 20 -8.5 41t-18.5 37q-10 14 -29.5 41t-31.5 43l166 117q10 -18 22 -35.5t23 -34.5q41 -57 41 -115q0 -66 -41 -127t-86 -110q-41 -45 -76 -82t-66 -72zM231 936l168 117l109 -170l-168 -115z" />
<glyph unicode="&#x3c;" horiz-adv-x="1366" d="M160 621v108l1081 457v-133l-917 -379l917 -379v-131z" />
<glyph unicode="=" horiz-adv-x="1366" d="M158 383v121h1085v-121h-1085zM158 852v121h1085v-121h-1085z" />
<glyph unicode="&#x3e;" horiz-adv-x="1366" d="M160 164v131l919 379l-919 379v133l1081 -457v-108z" />
<glyph unicode="?" horiz-adv-x="784" d="M106 131l166 115l109 -170l-166 -115zM164 1303q47 20 120.5 43.5t176.5 23.5q96 0 166.5 -24.5t117 -64.5t69 -91t22.5 -107q0 -53 -15.5 -96t-38 -78t-51.5 -62.5t-53 -47.5q-90 -72 -148.5 -117t-94.5 -85t-55.5 -86t-31.5 -120h-96q8 70 21.5 117t43 92t81 99.5 t134.5 140.5q45 45 72 104.5t27 126.5q0 49 -18.5 85t-48 58.5t-68.5 32.5t-78 10q-59 0 -112.5 -17t-100.5 -40z" />
<glyph unicode="@" horiz-adv-x="1755" d="M113 582q0 164 60 310t168 255.5t254 174t318 64.5q141 0 268.5 -45t222.5 -128t151.5 -199.5t56.5 -259.5q0 -121 -39 -230.5t-103.5 -194.5t-147.5 -135.5t-171 -50.5q-35 0 -69.5 9.5t-61.5 32t-43 57t-16 88.5q0 29 4 54.5t8 43.5q-70 -135 -157 -210t-179 -75 q-86 0 -142.5 63.5t-56.5 199.5q0 119 42 241.5t112 222t159 162t183 62.5q41 0 71.5 -12.5t52 -29t34 -32.5t18.5 -27l49 84h105l-119 -592q-8 -43 -16.5 -89t-8.5 -74q0 -33 11.5 -50.5t25.5 -26.5t27.5 -11.5t17.5 -2.5q45 0 103.5 39t109.5 109t86 165t35 208 q0 141 -55.5 246.5t-143.5 176t-196.5 105.5t-214.5 35q-133 0 -259 -51.5t-224.5 -146.5t-158 -231t-59.5 -306q0 -164 57.5 -296t155 -224.5t222 -142.5t260.5 -50q137 0 242.5 41t181 97t124 115.5t70.5 96.5l61 -37q-74 -117 -160.5 -191.5t-178 -117.5t-182.5 -59.5 t-171 -16.5q-178 0 -324.5 63.5t-251 171t-161.5 250t-57 302.5zM614 393q0 -10 2 -31.5t10.5 -44t26 -40t49.5 -17.5q45 0 89.5 41t85.5 100q41 61 71.5 135t53 147t38 137.5t25.5 107.5q-14 23 -37.5 48t-71.5 25q-61 0 -122.5 -60t-110.5 -150.5t-79 -197t-30 -198.5v-2z " />
<glyph unicode="A" horiz-adv-x="1073" d="M-90 0l702 1352h127l217 -1352h-200l-62 449h-397l-225 -449h-162zM348 555h332l-74 518z" />
<glyph unicode="B" horiz-adv-x="1146" d="M86 0l268 1352h305q98 0 172 -6.5t144 -40.5q59 -29 97 -86.5t38 -135.5q0 -72 -25.5 -134t-70.5 -111.5t-105.5 -83t-128.5 -47.5q53 -8 103.5 -29t88.5 -54.5t61.5 -80.5t23.5 -107q0 -33 -7.5 -73.5t-28 -86t-54 -90.5t-86.5 -84t-108.5 -59t-116 -29.5t-128 -11.5 t-145.5 -2h-297zM309 113h109q96 0 156.5 7t119.5 42q47 27 76 68.5t45 84.5t21.5 83t5.5 63q0 57 -21.5 93t-57.5 56.5t-81 27.5t-92 7h-176zM436 756h78q84 0 140.5 5t111.5 38q39 23 64.5 58.5t41 73.5t21.5 73.5t6 60.5q0 63 -23.5 99t-59.5 52.5t-81 19.5t-88 3h-115z " />
<glyph unicode="C" horiz-adv-x="1003" d="M102 481q0 92 20.5 194.5t60.5 202t100.5 188.5t141.5 156.5t181.5 107.5t220.5 40q100 0 171 -22.5t104 -38.5l-47 -109q-27 10 -83.5 29.5t-127.5 19.5q-123 0 -219.5 -74.5t-163 -191.5t-101 -259t-34.5 -278q0 -84 19.5 -148.5t53 -107.5t78.5 -65.5t96 -22.5 q31 0 62 5.5t64.5 15.5t73.5 28.5t93 45.5l56 -105q-100 -51 -188.5 -81.5t-194.5 -30.5q-115 0 -197 41.5t-135 110.5t-79 160t-26 189z" />
<glyph unicode="D" horiz-adv-x="1263" d="M86 0l268 1352h285q47 0 109.5 -1t128 -12.5t128 -38t112.5 -78t80 -133t30 -202.5q0 -84 -16.5 -181.5t-50.5 -195.5t-88 -188.5t-130 -159.5q-66 -61 -135.5 -94t-140 -48.5t-137 -17.5t-126.5 -2h-317zM313 113h117q78 0 155 9t148 62q78 57 131.5 154.5t85 207 t46 216t14.5 182.5q0 20 -3 54t-14.5 71t-34 72t-63.5 59q-47 29 -102.5 34t-130.5 5h-125z" />
<glyph unicode="E" horiz-adv-x="950" d="M86 0l268 1352h680l-24 -121h-475l-95 -473h441l-21 -119h-442l-103 -516h508l-26 -123h-711z" />
<glyph unicode="F" horiz-adv-x="892" d="M86 0l270 1352h666l-25 -121h-462l-101 -504h432l-24 -121h-430l-123 -606h-203z" />
<glyph unicode="G" horiz-adv-x="1124" d="M102 512q0 143 46.5 294.5t137.5 276.5t227 206t314 81q86 0 159 -16.5t132 -44.5l-49 -109q-35 16 -90 35.5t-127 19.5q-90 0 -164 -35.5t-132 -96t-102 -140.5t-73 -167t-43 -177t-14 -170q0 -121 30.5 -193.5t73.5 -111.5t88 -52.5t72 -15.5t52.5 2t48 11.5t41 14.5 t30.5 11l82 412h-230l23 115h426l-117 -580q-55 -25 -101 -44.5t-89 -32.5t-88 -19t-97 -6q-121 0 -208 45t-145 118.5t-86 170t-28 198.5z" />
<glyph unicode="H" horiz-adv-x="1290" d="M86 0l268 1352h205l-119 -592h508l119 592h205l-271 -1352h-204l129 643h-508l-129 -643h-203z" />
<glyph unicode="I" horiz-adv-x="579" d="M86 0l268 1352h205l-270 -1352h-203z" />
<glyph unicode="J" horiz-adv-x="600" d="M-193 -299l27 115q33 -8 58.5 -11.5t37.5 -3.5q49 0 80 18.5t50.5 50.5t30.5 74t22 89l262 1319h205l-250 -1252q-16 -84 -37 -158.5t-59.5 -133t-106.5 -92t-178 -33.5q-53 0 -86 6t-56 12z" />
<glyph unicode="K" horiz-adv-x="1140" d="M86 0l270 1352h203l-123 -625l635 625h186l-651 -613l443 -739h-236l-387 678l-137 -678h-203z" />
<glyph unicode="L" horiz-adv-x="886" d="M86 0l270 1352h203l-244 -1231h482l-23 -121h-688z" />
<glyph unicode="M" horiz-adv-x="1525" d="M86 0l270 1352h246l117 -1061l541 1061h247l-270 -1352h-186l233 1171l-594 -1171h-102l-129 1171l-234 -1171h-139z" />
<glyph unicode="N" horiz-adv-x="1300" d="M86 0l270 1352h131l445 -1024l205 1024h145l-270 -1352h-133l-445 1022l-205 -1022h-143z" />
<glyph unicode="O" horiz-adv-x="1243" d="M102 494v2q0 82 17.5 178t52.5 193.5t89 188.5t130 160.5t172 111.5t215 42q205 0 317.5 -132t112.5 -359q0 -80 -16 -178.5t-50 -198t-87.5 -193.5t-127 -167.5t-171 -117.5t-217.5 -44q-100 0 -181.5 35.5t-137.5 103t-87 163t-31 212.5zM317 410q0 -158 69 -238 t167 -80q80 0 143.5 47t112.5 122t84 170t56.5 192.5t31.5 185.5t10 152q0 59 -12 113t-40 95t-70 64.5t-99 23.5q-78 0 -142.5 -41.5t-114.5 -112.5t-87 -160t-61.5 -183t-36 -185.5t-11.5 -162.5v-2z" />
<glyph unicode="P" horiz-adv-x="1073" d="M86 0l268 1352h301q72 0 151 -4.5t150 -28.5q74 -29 128.5 -89.5t54.5 -174.5q0 -23 -6.5 -71t-31 -104.5t-71.5 -113.5t-129 -96q-94 -49 -199.5 -57.5t-205.5 -8.5h-84l-123 -604h-203zM432 717h96q61 0 128 6t120 37q35 18 61.5 52t45 76t28 86t9.5 85q0 63 -24 100 t-60.5 54.5t-80.5 21.5t-83 4h-135z" />
<glyph unicode="Q" horiz-adv-x="1243" d="M102 492q0 84 17.5 181t52.5 194.5t89 188.5t130 160.5t172 111.5t215 42q102 0 182 -35t135.5 -99.5t84 -154.5t28.5 -202q0 -61 -11 -146.5t-39 -179.5t-72 -187.5t-109.5 -171t-154.5 -133t-204 -69.5l289 -295h-237l-271 305q-37 16 -87 46t-97 85t-80 142t-33 217z M317 410q0 -156 68 -236t166 -80q80 0 144.5 46t112.5 121t83 169t57.5 190.5t32.5 186.5t10 154q0 59 -12 112t-40 94t-70 65.5t-99 24.5q-78 0 -141.5 -41.5t-113.5 -111.5t-88 -159t-61.5 -183t-36 -185.5t-12.5 -164.5v-2z" />
<glyph unicode="R" horiz-adv-x="1107" d="M86 0l270 1352h248q63 0 113.5 -1t90.5 -6.5t75 -15.5t69 -31q57 -33 92 -94t35 -137q0 -61 -21.5 -129t-67.5 -127t-121.5 -104t-182.5 -62l332 -645h-227l-295 618h-86l-125 -618h-199zM430 721h80q72 0 142.5 11t125.5 77q27 31 43.5 65.5t26.5 69.5t14 66.5t4 54.5 q0 63 -22.5 98t-59 52.5t-82 20.5t-88.5 3h-82z" />
<glyph unicode="S" horiz-adv-x="849" d="M-2 72l53 106q41 -23 111.5 -50.5t156.5 -27.5q70 0 120 21.5t84 57.5t50.5 79t16.5 86q0 59 -41 117.5t-129 140.5l-29 27q-45 43 -83 84t-66.5 84t-45 91t-16.5 103q0 84 34 153.5t94.5 120t143.5 78t181 27.5q57 0 124.5 -12t135.5 -43l-47 -109q-43 16 -96.5 29.5 t-114.5 13.5q-117 0 -192.5 -60.5t-75.5 -162.5q0 -72 38.5 -126t98.5 -107l43 -37q59 -53 103 -98.5t72 -89.5t41 -89t13 -96q0 -78 -30.5 -150.5t-89 -129t-142.5 -90t-188 -33.5q-184 0 -328 92z" />
<glyph unicode="T" horiz-adv-x="968" d="M162 1237l22 115h936l-24 -115h-365l-248 -1237h-202l245 1237h-364z" />
<glyph unicode="U" horiz-adv-x="1267" d="M147 336q0 20 2.5 39.5t5.5 44t9 57.5t14 80l160 795h203l-154 -770q-18 -92 -26.5 -148.5t-8.5 -103.5q0 -55 20.5 -97.5t54.5 -71t78 -43t91 -14.5q104 0 169.5 49.5t106.5 121t61.5 154.5t35.5 151l153 772h144l-160 -803q-29 -150 -64.5 -240t-83.5 -145 q-55 -68 -116.5 -106t-117.5 -55t-101 -20t-66 -3q-98 0 -175 27.5t-129 76.5t-79 113.5t-27 138.5z" />
<glyph unicode="V" horiz-adv-x="1073" d="M182 1352h209l148 -1053l520 1053h166l-701 -1352h-127z" />
<glyph unicode="W" horiz-adv-x="1527" d="M215 1352h201l55 -1012l424 1012h127l59 -1004l418 1004h148l-586 -1352h-127l-64 1024l-428 -1024h-127z" />
<glyph unicode="X" horiz-adv-x="1011" d="M-86 0l520 692l-244 660h213l179 -518l374 518h164l-483 -635l272 -717h-217l-200 571l-414 -571h-164z" />
<glyph unicode="Y" horiz-adv-x="1011" d="M166 1352h219l219 -609l414 609h162l-525 -740l-123 -612h-200l123 612z" />
<glyph unicode="Z" horiz-adv-x="1003" d="M-57 0l20 100l864 1131h-624l24 121h867l-21 -101l-860 -1128h696l-24 -123h-942z" />
<glyph unicode="[" horiz-adv-x="587" d="M-14 -453l403 2018h393l-20 -103h-232l-362 -1812h231l-20 -103h-393z" />
<glyph unicode="\" horiz-adv-x="651" d="M-98 1485h133l780 -1618h-133z" />
<glyph unicode="]" horiz-adv-x="587" d="M-176 -453l20 103h232l362 1812h-231l18 103h393l-401 -2018h-393z" />
<glyph unicode="^" horiz-adv-x="1312" d="M213 717l465 635h55l461 -635h-147l-342 467l-347 -467h-145z" />
<glyph unicode="_" horiz-adv-x="1024" d="M-150 -154h1049v-102h-1049v102z" />
<glyph unicode="`" d="M182 1378l133 45q35 -37 71 -66.5t76 -56t85 -53t100 -57.5l-33 -68q-90 41 -179 75t-206 44z" />
<glyph unicode="a" horiz-adv-x="1026" d="M45 264q0 117 42 251t124 249t198.5 191.5t268.5 76.5q78 0 146.5 -19.5t123.5 -43.5l-194 -969h-174l59 297q-16 -31 -48 -84t-78 -105.5t-107.5 -90t-139.5 -37.5q-102 0 -161.5 73.5t-59.5 210.5zM244 248q0 -16 3 -41t12 -47.5t28.5 -39t50.5 -16.5q37 0 74 25 t71.5 66t64.5 93t52 107q35 86 74 213t78 301q-10 4 -36 10.5t-63 6.5q-90 0 -165.5 -69t-130 -170t-84 -220t-29.5 -217v-2z" />
<glyph unicode="b" horiz-adv-x="1040" d="M76 41l286 1444h189l-152 -762q33 61 73 117.5t88 99.5t102.5 67.5t113.5 24.5q100 0 158.5 -75.5t58.5 -192.5q0 -55 -9 -120.5t-30.5 -136.5t-55.5 -141.5t-83 -136.5q-59 -80 -119.5 -129t-119 -75.5t-112.5 -35.5t-102 -9q-86 0 -156.5 16t-129.5 45zM272 106 q16 -6 42 -13t65 -7h2q70 0 128 37t104 96.5t81 134t57.5 149.5t34 143.5t11.5 115.5q0 18 -3 42.5t-13.5 48.5t-30 39t-50.5 15q-37 0 -70.5 -22.5t-63 -53t-51 -62.5t-34.5 -50q-41 -66 -73.5 -145.5t-58 -162.5t-44 -162t-33.5 -143z" />
<glyph unicode="c" horiz-adv-x="780" d="M45 303q0 74 19.5 157t56.5 164t91 154.5t121.5 130t148.5 90t173 33.5q27 0 75 -6t112 -35l-43 -100q-20 10 -52 20.5t-77 10.5q-84 0 -161 -60.5t-135.5 -154t-92 -206t-33.5 -218.5q0 -92 44 -138.5t101 -46.5q31 0 67 11.5t69.5 27t63.5 31.5t48 27l49 -95 q-96 -55 -180 -87.5t-172 -32.5q-129 0 -211 82.5t-82 240.5z" />
<glyph unicode="d" horiz-adv-x="1038" d="M45 260q0 76 17.5 163t53.5 172t87 163t119.5 137t152.5 95t182 36q41 0 73 -5t52 -9l97 473h186l-295 -1485h-176l61 311q-53 -104 -104 -168.5t-99.5 -101.5t-94.5 -49t-89 -12q-61 0 -104 22.5t-68.5 61t-38 90t-12.5 106.5zM246 244q0 -12 1 -35t9 -46.5t27.5 -40 t54.5 -16.5q41 0 79 26t71.5 63.5t60 80.5t43.5 78q35 72 62.5 149t48 149.5t36 138t27.5 116.5q-18 4 -41 8.5t-57 4.5q-76 0 -137.5 -37t-108.5 -96.5t-80 -134t-54.5 -149.5t-31.5 -142.5t-10 -114.5v-2z" />
<glyph unicode="e" horiz-adv-x="854" d="M45 295q0 82 23.5 168t65.5 168t99.5 154.5t125 128t144.5 87t154 31.5q55 0 93 -15.5t63 -40t35 -57t10 -65.5q0 -55 -18.5 -99t-50 -78t-73.5 -58.5t-89 -43.5q-47 -18 -96.5 -29t-95.5 -18.5t-86 -11.5t-68 -6q-25 -66 -33 -130.5t-8 -100.5q0 -82 38.5 -131.5 t106.5 -49.5q47 0 107.5 21.5t164.5 85.5l56 -92q-78 -47 -174.5 -90t-200.5 -43q-125 0 -209 77.5t-84 237.5zM307 602q47 2 114.5 11.5t129 36t104.5 73.5t43 125v2q0 37 -21.5 59.5t-55.5 22.5q-27 0 -64 -16.5t-79 -55.5t-86 -102.5t-85 -155.5z" />
<glyph unicode="f" horiz-adv-x="589" d="M-195 -375l21 105q14 -4 31.5 -7.5t42.5 -3.5q53 0 89 26t63.5 84t49 151.5t45.5 226.5l129 698h-153l22 107h150l24 129q12 55 29 118.5t52.5 115.5t97 87t161.5 35q47 0 74 -4t55 -12l-24 -101q-10 4 -32.5 7.5t-49.5 3.5q-47 0 -75.5 -19.5t-47 -52.5t-29 -73 t-18.5 -81l-29 -153h176l-20 -107h-178l-133 -665q-25 -125 -52.5 -239t-72.5 -200t-116 -137t-183 -51q-35 0 -57.5 4t-41.5 8z" />
<glyph unicode="g" horiz-adv-x="890" d="M-66 -168q0 47 26 85t70 69.5t101 61.5t121 61q-49 31 -81 57.5t-32 69.5q0 41 34 74.5t101 80.5q-18 10 -43.5 27.5t-50 47.5t-42 75t-17.5 108q0 66 24.5 133.5t72.5 123t120 91t168 35.5q45 0 71.5 -7t47.5 -13h301l-23 -107l-153 6q65 -71 65 -181 q0 -91 -32.5 -160.5t-85 -119t-120 -75t-137.5 -25.5q-33 0 -51 4t-35 8q-37 -23 -50 -39t-13 -30q0 -16 18.5 -29.5t48 -28t66.5 -28.5t74 -31q39 -16 88 -37.5t93 -54.5t73.5 -77t29.5 -103q0 -76 -42 -132.5t-107.5 -93t-145 -54t-155.5 -17.5q-68 0 -137.5 14t-128 42 t-95.5 71t-37 98zM109 -147q0 -43 26.5 -72t64.5 -46.5t80 -23.5t72 -6h2q31 0 74 8t82 27.5t66.5 50.5t27.5 76q0 31 -11 52.5t-40 39.5q-29 23 -78 46.5t-135 64.5q-74 -35 -119 -66t-69.5 -57.5t-33.5 -50t-9 -43.5zM299 623q0 -80 38 -128.5t101 -48.5q49 0 86 32 t62.5 79t38 104.5t12.5 110.5q0 10 -2 37t-14.5 55.5t-39 50t-75.5 21.5q-47 0 -85 -27.5t-64.5 -71.5t-42 -100.5t-15.5 -111.5v-2z" />
<glyph unicode="h" horiz-adv-x="1064" d="M68 0l294 1485h187l-150 -754q72 133 164 217t209 84q88 0 139.5 -50t51.5 -136q0 -37 -8.5 -85t-14.5 -81l-135 -680h-187l136 678q2 8 5 27.5t6 41t6 44t3 38.5q0 41 -22.5 59.5t-51.5 18.5q-51 0 -97 -38t-83 -86t-60.5 -94t-31.5 -60q-29 -61 -52.5 -127t-43 -140.5 t-40 -163.5t-42.5 -198h-182z" />
<glyph unicode="i" horiz-adv-x="526" d="M68 0l200 1012h189l-203 -1012h-186zM309 1417l156 107l102 -158l-155 -109z" />
<glyph unicode="j" horiz-adv-x="544" d="M-203 -367l27 103q14 -4 34.5 -9.5t47.5 -5.5q45 0 75.5 23t50 62.5t32 92t24.5 111.5l201 1002h186l-192 -967q-12 -59 -28.5 -134t-53.5 -140.5t-101.5 -111.5t-173.5 -46q-43 0 -73.5 6t-55.5 14zM330 1413l153 111l103 -160l-154 -107z" />
<glyph unicode="k" horiz-adv-x="931" d="M68 0l297 1485h186l-189 -950q33 68 85.5 152.5t120 160.5t151.5 127t184 51q23 0 37 -1t27 -5l-21 -107q-10 2 -25.5 4.5t-35.5 2.5q-61 0 -114.5 -29t-95.5 -66t-69.5 -72.5t-36.5 -47.5q2 -80 19.5 -167t50.5 -178.5t83 -182.5t120 -177h-221q-31 41 -62 96.5 t-57.5 124t-46 147t-27.5 169.5q-66 -127 -107.5 -261.5t-70.5 -275.5h-182z" />
<glyph unicode="l" horiz-adv-x="526" d="M68 0l297 1485h186l-297 -1485h-186z" />
<glyph unicode="m" horiz-adv-x="1587" d="M68 0l202 1012h174l-57 -285q25 49 60.5 102.5t81.5 98.5t102.5 74.5t122.5 29.5q84 0 134 -47t50 -131q0 -31 -4 -61.5t-10 -63.5q14 27 44.5 78t78 101t111 87t140.5 37q74 0 130.5 -44t56.5 -142q0 -35 -7.5 -80t-13.5 -74l-137 -692h-186l135 688q10 53 15 89t5 50 q0 29 -15 53.5t-56 24.5q-49 0 -92 -34.5t-77 -80t-56.5 -88.5t-30.5 -61q-33 -72 -59.5 -151.5t-48 -163.5t-40 -167t-33.5 -159h-186l139 690q4 18 10.5 59.5t6.5 75.5q0 29 -15.5 54.5t-58.5 25.5q-33 0 -63.5 -17.5t-58 -44t-50.5 -58t-41 -62.5q-78 -133 -127 -323.5 t-92 -399.5h-184z" />
<glyph unicode="n" horiz-adv-x="1064" d="M68 0l200 1012h176l-61 -312q78 160 178.5 246t212.5 86q90 0 139.5 -52t49.5 -132q0 -41 -8.5 -93.5t-12.5 -74.5l-135 -680h-189l136 678q2 8 5 26.5t7 41t7 44t3 37.5q0 27 -8 42.5t-20.5 23.5t-25.5 11t-22 3q-43 0 -85 -30.5t-76.5 -72.5t-61 -87t-41.5 -76 q-63 -139 -103 -293.5t-81 -347.5h-184z" />
<glyph unicode="o" horiz-adv-x="980" d="M55 350v2q0 96 33 215t100.5 222.5t171 173t242.5 69.5q92 0 153.5 -32.5t99.5 -84t54.5 -113t16.5 -118.5q0 -111 -35 -234.5t-102.5 -228t-169 -173t-234.5 -68.5q-80 0 -141.5 28.5t-103.5 78.5t-63.5 117.5t-21.5 145.5zM250 274q0 -16 4 -48.5t19.5 -65.5t44 -56.5 t79.5 -23.5q57 0 104.5 36t84.5 94t64.5 131t45 146.5t26.5 139t9 110.5q0 35 -8 70t-24.5 62.5t-44 45t-66.5 17.5q-74 0 -136.5 -63.5t-107.5 -161t-69.5 -213t-24.5 -218.5v-2z" />
<glyph unicode="p" horiz-adv-x="1042" d="M-6 -373l276 1385h174l-63 -312q33 61 74 122t90 107t106.5 74.5t122.5 28.5q57 0 98 -22.5t69 -61.5t41 -88t13 -100q0 -106 -38.5 -241.5t-118.5 -258.5q-88 -129 -202 -201.5t-251 -72.5q-45 0 -77 5t-54 9l-74 -373h-186zM272 102q18 -4 41 -7t58 -3q78 0 140 39 t109.5 101.5t81 139.5t55 151.5t31 140t9.5 104.5v2q0 10 -1 32.5t-10.5 46t-29 41t-54.5 17.5t-68.5 -20.5t-61 -49t-49 -59t-34.5 -51.5q-45 -70 -79.5 -155t-61 -170t-45 -163.5t-31.5 -136.5z" />
<glyph unicode="q" horiz-adv-x="1046" d="M45 262q0 74 18.5 159t54.5 171t90 165t126 140t161 98t195 37q92 0 165 -22.5t114 -40.5l-269 -1342h-188l131 658q-18 -35 -52 -86.5t-80 -100.5t-105.5 -83.5t-133.5 -34.5q-100 0 -163.5 70.5t-63.5 211.5zM246 258q0 -25 4 -51.5t14 -48t28.5 -35.5t49.5 -14 q39 0 77 24.5t71.5 62t61.5 84t48 87.5q23 49 44.5 104t42 120.5t41 143.5t42.5 174q-23 10 -47.5 13.5t-52.5 3.5q-68 0 -125.5 -33t-104.5 -88t-84 -125t-61.5 -144.5t-36.5 -146.5t-12 -129v-2z" />
<glyph unicode="r" horiz-adv-x="688" d="M68 0l202 1012h174l-71 -361q18 43 50 108.5t75 126t97 103.5t122 43q14 0 43 -6l-35 -168q-16 4 -39 4q-47 0 -88 -27.5t-77 -73.5t-67.5 -108.5t-58.5 -130.5q-29 -72 -51 -146.5t-39.5 -144t-31 -129t-21.5 -102.5h-184z" />
<glyph unicode="s" horiz-adv-x="694" d="M-20 55l51 95q31 -16 85 -39t128 -23q49 0 86 14.5t59.5 38t33.5 52t11 59.5q0 51 -33.5 98t-93.5 109l-51 51q-74 76 -101.5 130t-27.5 114q0 57 26.5 107t72.5 88t110.5 60.5t138.5 22.5q66 0 121 -15.5t92 -31.5l-41 -100q-59 25 -99 32t-69 7q-88 0 -133 -42t-45 -94 q0 -37 20.5 -70.5t81.5 -94.5l41 -43q68 -68 116 -135.5t48 -157.5q0 -49 -19.5 -102.5t-62.5 -99.5t-111.5 -75.5t-166.5 -29.5q-78 0 -143.5 20t-124.5 55z" />
<glyph unicode="t" horiz-adv-x="628" d="M121 135q0 31 6 66t14 80l125 624h-145l20 107h156l53 268h180l-53 -268h185l-23 -107h-184l-127 -637q-8 -41 -12.5 -66.5t-4.5 -54.5q0 -20 13.5 -34.5t40.5 -14.5q35 0 68.5 14.5t58.5 24.5l40 -96q-78 -39 -142 -49t-95 -10q-72 0 -123 36.5t-51 116.5z" />
<glyph unicode="u" horiz-adv-x="1064" d="M100 166q0 41 6.5 82t14.5 80l137 684h188l-137 -680q-6 -35 -12 -73t-6 -69t10 -47t24.5 -25t27 -11.5t16.5 -2.5q39 0 71.5 19.5t60 50.5t50 65.5t41.5 65.5q45 78 80 176.5t62.5 196.5t46 187t30.5 147h186l-202 -1012h-177l62 303q-27 -47 -62.5 -103.5t-84 -105.5 t-107.5 -81.5t-133 -32.5q-78 0 -135.5 45t-57.5 141z" />
<glyph unicode="v" horiz-adv-x="890" d="M106 1012h203q53 -137 80 -291t27 -307q1 -30 1 -55t-1 -45q-2 -42 -6 -85q55 74 109 162t103.5 187.5t87.5 208t58 225.5h137q-37 -188 -112.5 -353t-159.5 -297.5t-160 -225.5t-115 -136h-129q6 37 14.5 102.5t8.5 169.5q0 160 -18.5 284t-40.5 210q-25 98 -47.5 155.5 t-39.5 90.5z" />
<glyph unicode="w" horiz-adv-x="1361" d="M119 1012h203q53 -156 72.5 -298.5t19.5 -264.5q0 -70 -5.5 -125.5t-9.5 -96.5q45 59 96.5 148.5t98.5 194t83 218t48 224.5h129q49 -123 71.5 -261.5t22.5 -279.5q0 -80 -5 -129t-13 -90q43 63 93 151.5t95 189.5t80 208.5t49 210.5h131q-23 -145 -78 -293t-128.5 -282 t-154.5 -247.5t-153 -189.5h-129q16 55 26.5 120.5t16.5 129t9.5 117t3.5 82.5q0 150 -31 284q-37 -129 -91.5 -243.5t-113.5 -208t-115.5 -165t-95.5 -116.5h-129q10 53 19.5 132t9.5 190q0 201 -33 372.5t-92 317.5z" />
<glyph unicode="x" horiz-adv-x="841" d="M-84 -16l21 106q55 0 102 30t90 84t83 132t83 176v20q-1 72 -13 136q-14 74 -36.5 137t-51 115.5t-57.5 91.5h207q39 -63 61.5 -122t33 -110t12.5 -94t2 -74q59 143 115.5 227.5t110.5 125.5t107.5 51t104.5 10l-21 -108q-12 2 -23 2q-46 0 -86 -27q-50 -33 -91 -84 t-71 -110.5t-48 -106.5v-21q1 -85 15 -160q16 -85 42.5 -161t61.5 -138.5t69 -111.5h-211q-61 90 -98 216t-41 273q-66 -152 -120 -249t-111 -156q-57 -57 -113.5 -78.5t-128.5 -21.5z" />
<glyph unicode="y" horiz-adv-x="890" d="M-90 -373q61 41 119.5 90.5t108.5 99.5t90 97t69 86q6 55 8 156v23q0 93 -15 212q-16 133 -58 292t-126 329h211q20 -43 47 -116t50.5 -170t39.5 -217q11 -87 11 -182q0 -37 -2 -75q25 39 65.5 115.5t85.5 177t87 220.5t67 247h137q-33 -160 -105.5 -337t-174 -358.5 t-228.5 -357.5t-266 -332h-221z" />
<glyph unicode="z" horiz-adv-x="860" d="M-55 31l637 766q-16 -2 -28.5 -2t-29.5 6q-29 8 -92 53q-57 41 -79.5 48t-33.5 7q-10 0 -20 -2t-24.5 -9t-33 -21.5t-44.5 -38.5l-74 73q39 45 92 83t121 38q41 0 78 -11t110 -38q61 -23 91 -29t47 -6q47 0 89 23.5t83 66.5l59 -55l-627 -758q12 4 33 4q35 0 72 -19.5 t72.5 -44t70.5 -44t66 -19.5q20 0 39.5 11.5t38 28t33 35t24.5 30.5l86 -64q-70 -90 -126.5 -126.5t-111.5 -36.5q-25 0 -47 3t-50 10t-63.5 19.5t-89.5 30.5q-29 10 -62.5 16.5t-60.5 6.5q-53 0 -98 -24t-90 -69z" />
<glyph unicode="{" horiz-adv-x="716" d="M45 537l12 65q86 0 139.5 12.5t87 46t53 94t38.5 154.5l51 258q20 100 45 174t76 121t137 68.5t227 21.5l-16 -77q-78 -2 -125 -15.5t-75.5 -44.5t-45 -82t-31.5 -127l-49 -243q-14 -72 -30.5 -137.5t-50 -120t-90 -94.5t-148.5 -58q86 -29 133 -88t47 -137 q0 -53 -9 -104.5t-20 -96.5l-24 -129q-10 -47 -19.5 -107.5t-9.5 -95.5q0 -51 20.5 -81.5t49 -47t59.5 -22.5t53 -6l-18 -78q-86 0 -149.5 19.5t-106.5 54t-64.5 80.5t-21.5 100q0 61 11.5 122.5t17.5 94.5l28 145q10 43 17.5 90t7.5 94q0 66 -28.5 102t-64.5 52t-70 19.5 t-44 3.5z" />
<glyph unicode="|" horiz-adv-x="1017" d="M487 -461v2048h129v-2048h-129z" />
<glyph unicode="}" horiz-adv-x="714" d="M-178 -440l14 78q78 2 125 15t76 44t44 82t32 127l49 244q14 70 31.5 136t51.5 120.5t90 94.5t148 58q-86 29 -133 88.5t-47 136.5q0 53 8 104.5t19 96.5l26 129q10 47 19.5 107.5t9.5 95.5q0 51 -20.5 82t-49 47t-59.5 22.5t-53 6.5l16 77q86 0 150.5 -19.5t106.5 -54 t63.5 -80.5t21.5 -100q0 -61 -10 -122.5t-16 -94.5l-29 -145q-10 -43 -17.5 -90t-7.5 -94q0 -66 29 -102t64.5 -52t69.5 -19.5t44 -3.5l-12 -65q-86 0 -139.5 -12.5t-87 -46t-53 -94t-38.5 -154.5l-51 -258q-20 -102 -44.5 -175t-76 -120t-137.5 -68.5t-227 -21.5z" />
<glyph unicode="~" horiz-adv-x="1343" d="M150 618v132q160 125 296 124q23 0 45.5 -3t51 -11t67.5 -24.5t95 -40.5q90 -41 140 -61.5t97 -20.5q45 0 88 14t80 35.5t67.5 46.5t53.5 43v-133q-84 -72 -155.5 -99.5t-137.5 -27.5q-25 0 -49.5 4t-55 13t-70.5 25.5t-97 43.5q-82 41 -132.5 58.5t-91.5 17.5 q-53 0 -121.5 -27t-170.5 -109z" />
<glyph unicode="&#xa1;" horiz-adv-x="561" d="M-6 -215q12 16 27.5 37.5t33 55.5t36 82t40.5 116q18 61 36.5 135t35 148.5t31 143t24.5 118.5l86 -19q-12 -55 -23.5 -116.5t-21.5 -123t-18.5 -117t-14.5 -98.5q-18 -133 -20 -228t20 -189l-164 -111zM221 936l168 115l111 -170l-168 -115z" />
<glyph unicode="&#xa2;" horiz-adv-x="999" d="M154 571q0 80 23.5 176.5t76.5 187.5t138 162.5t208 100.5q41 10 88 14.5t92 1.5l76 216h94l-80 -226q39 -8 70 -17t66 -26l-48 -100q-53 27 -124 41l-289 -832q33 -4 60.5 -3t56 8.5t60.5 21.5t73 37l49 -96q-47 -29 -94.5 -46.5t-92.5 -24.5t-83.5 -8t-69.5 3l-86 -248 h-94l92 262q-133 47 -197.5 150.5t-64.5 244.5zM354 543q0 -84 23.5 -145.5t81.5 -98.5l282 809q-111 2 -185.5 -58.5t-118.5 -147.5t-63.5 -185.5t-19.5 -173.5z" />
<glyph unicode="&#xa3;" horiz-adv-x="1075" d="M-12 8q12 43 25.5 74t37 62.5t61.5 69.5t99 97q25 25 55.5 56.5t56 69.5t43 83t17.5 94q0 23 -4 42.5t-8 33.5h-271l19 84h225q-33 82 -57.5 149.5t-24.5 127.5q0 63 33 121.5t93.5 102.5t146.5 69.5t192 25.5q84 0 164 -15.5t156 -47.5l-43 -103q-41 16 -111 36t-162 20 q-57 0 -107.5 -13.5t-88 -40t-60 -63.5t-22.5 -82q0 -25 10 -62.5t24.5 -79.5t28.5 -81t25 -64h329l-16 -84h-295q2 -16 1 -29.5t-1 -25.5q-4 -45 -25.5 -89t-56.5 -87t-78 -85t-88 -83q14 4 27.5 8t32.5 4q18 0 36.5 -5t45 -17.5t63.5 -34t94 -53.5q55 -35 88 -48.5 t60 -13.5q23 0 43 8t40.5 35t40 73t40.5 124l104 -25q-47 -184 -114.5 -275t-178.5 -91q-31 0 -58.5 5t-59 19t-72.5 36.5t-101 57.5q-76 43 -110.5 51.5t-52.5 8.5q-47 0 -81 -20.5t-55.5 -49.5t-35 -59.5t-21.5 -53.5z" />
<glyph unicode="&#xa4;" horiz-adv-x="1394" d="M223 279l127 124q-14 20 -30.5 46t-31 59t-23.5 75t-9 95q0 104 33 169.5t61 104.5l-127 127l82 82l127 -127q20 14 46 30.5t59.5 31t75.5 23.5t96 9q102 0 166.5 -32.5t105.5 -61.5l127 127l82 -82l-125 -127q29 -45 60.5 -109.5t31.5 -168.5q0 -51 -9 -92t-23.5 -74 t-30 -58.5t-29.5 -46.5l125 -124l-82 -82l-127 125q-45 -31 -109.5 -63t-164.5 -32q-53 0 -95.5 10.5t-76 24.5t-59 30.5t-44.5 29.5l-125 -125zM373 678q0 -70 26.5 -130.5t71.5 -105.5t106.5 -71.5t129.5 -26.5t129 26.5t106 71.5t71.5 105.5t26.5 130.5v2q0 68 -26.5 128 t-71.5 105t-106.5 72t-128.5 27q-68 0 -129.5 -27t-106.5 -72t-71.5 -105t-26.5 -130z" />
<glyph unicode="&#xa5;" horiz-adv-x="1046" d="M111 328l16 84h311l39 200h-311l18 84h273l-242 656h203l200 -602l398 602h149l-448 -656h250l-17 -84h-288l-41 -200h288l-16 -84h-289l-65 -328h-185l66 328h-309z" />
<glyph unicode="&#xa6;" horiz-adv-x="1017" d="M487 -307v717h129v-717h-129zM487 717v717h129v-717h-129z" />
<glyph unicode="&#xa7;" horiz-adv-x="917" d="M23 -274l53 98q35 -18 100.5 -44t157.5 -26q68 0 116 18.5t80.5 47t48 64.5t15.5 71q0 63 -45 114.5t-113 112.5t-116 109.5t-78.5 91.5t-45 84t-14.5 84q0 29 7.5 62.5t32 75.5t71.5 94.5t125 117.5q-78 78 -125 142.5t-47 148.5q0 63 29.5 120.5t84 99.5t131 66.5 t168.5 24.5q70 0 137.5 -12t133.5 -41l-43 -102q-74 31 -132.5 38t-86.5 7q-61 0 -107.5 -15.5t-78 -40t-47 -55.5t-15.5 -61q0 -31 9 -57.5t31.5 -54.5t57.5 -60.5t88 -79.5t97.5 -88t75 -82t48 -84t17.5 -92q0 -47 -14.5 -89t-43 -85t-71.5 -90.5t-103 -104.5 q80 -76 115 -137.5t35 -126.5q0 -78 -35 -142.5t-93.5 -109.5t-135 -69.5t-162.5 -24.5q-18 0 -52 2t-77 11t-91 24.5t-93 44.5zM344 590q0 -63 47 -123q25 -29 61.5 -64.5t90.5 -83.5q53 61 97 125t44 129q0 41 -17.5 74t-52.5 74q-8 8 -25.5 23.5t-38 34t-37.5 34.5 t-26 27q-25 -25 -49 -52.5t-45.5 -59.5t-35 -65.5t-13.5 -70.5v-2z" />
<glyph unicode="&#xa8;" d="M184 1262l127 86l84 -129l-125 -82zM575 1262l127 86l84 -129l-127 -82z" />
<glyph unicode="&#xa9;" horiz-adv-x="1841" d="M125 676q0 166 62.5 310t171 253t253 171.5t308.5 62.5q166 0 310 -62.5t252.5 -171.5t171 -253t62.5 -310v-2q0 -164 -62.5 -309.5t-171 -253t-253 -170t-309.5 -62.5q-164 0 -309.5 62.5t-253 171t-170 253t-62.5 310.5zM203 676q0 -150 56 -281t153.5 -229 t228.5 -154.5t279 -56.5q150 0 280.5 56.5t229 154.5t154.5 229t56 281v2q0 147 -56 278t-154.5 229.5t-229.5 155t-280 56.5q-147 0 -278.5 -56.5t-229 -155t-153.5 -229.5t-56 -280zM498 680q0 129 38.5 228.5t103.5 167t151 102t182 34.5q86 0 146.5 -20.5t97.5 -36.5 l-43 -102q-29 14 -74 30.5t-109 16.5q-53 0 -104 -22.5t-91 -72t-64.5 -126t-24.5 -187.5q0 -104 21.5 -183t57 -131t82.5 -79t101 -27q53 0 100 17.5t100 48.5l52 -100q-41 -20 -111 -48t-168 -28q-92 0 -173 33.5t-141.5 100t-95 163t-34.5 221.5z" />
<glyph unicode="&#xaa;" horiz-adv-x="645" d="M119 905q0 72 27.5 154t80 150.5t128 114.5t173.5 46q66 0 114 -15.5t71 -25.5l-127 -592h-135l26 121q-16 -18 -34.5 -41.5t-44 -44t-57.5 -34t-73 -13.5q-66 0 -107.5 44t-41.5 136zM262 893q0 -25 9.5 -49.5t39.5 -24.5q31 0 68 36t72 97q20 35 37.5 79t30.5 90 t24.5 88t17.5 71q-14 4 -27.5 5t-29.5 -1q-55 -4 -99.5 -46t-76 -100.5t-49 -124t-17.5 -118.5v-2z" />
<glyph unicode="&#xab;" horiz-adv-x="794" d="M70 639l299 373h90l-193 -373l45 -373h-80zM416 639l299 373h90l-193 -373l45 -373h-79z" />
<glyph unicode="&#xac;" horiz-adv-x="1366" d="M160 844v123h1083v-609h-121v486h-962z" />
<glyph unicode="&#xad;" horiz-adv-x="546" d="M66 459l30 147h391l-30 -147h-391z" />
<glyph unicode="&#xae;" horiz-adv-x="1003" d="M193 1057q0 86 32.5 161.5t90 132t132 89.5t160.5 33t162 -33t131 -89.5t88 -132t33 -161.5v-2q0 -86 -33 -161t-88 -131t-131 -89t-162 -33t-160.5 33t-132 89t-90 132t-32.5 162zM246 1057q0 -76 28.5 -141.5t77.5 -114.5t116 -77t140 -28q74 0 140.5 28t115.5 77 t78 114.5t29 141.5v2q0 74 -29 139.5t-78 114.5t-115.5 76.5t-140.5 27.5t-140.5 -27.5t-115.5 -76.5t-77.5 -114.5t-28.5 -141.5zM438 813v504h135q31 0 69 -2t70.5 -13.5t55.5 -37t23 -72.5q0 -51 -33 -86t-88 -51l166 -242h-117l-137 221h-43v-221h-101zM539 1083h24 q20 0 43 2t39.5 11.5t27.5 29t11 56.5q0 59 -33 70.5t-84 11.5h-28v-181z" />
<glyph unicode="&#xaf;" d="M176 1196l23 117h604l-23 -117h-604z" />
<glyph unicode="&#xb0;" horiz-adv-x="811" d="M195 1077q0 61 23.5 114.5t63.5 93.5t93 62.5t114 22.5t114.5 -22.5t93.5 -62.5t63.5 -93t23.5 -115v-2q0 -59 -23.5 -112.5t-63.5 -93.5t-93 -62.5t-115 -22.5q-61 0 -114 22.5t-93 62.5t-63.5 93.5t-23.5 114.5zM295 1079q0 -41 15.5 -76.5t42 -61.5t61.5 -41t73 -15 q82 0 138.5 56t56.5 138v2q0 39 -15.5 74t-41 60.5t-61.5 40t-77 14.5q-80 0 -136 -55.5t-56 -135.5z" />
<glyph unicode="&#xb1;" horiz-adv-x="1366" d="M158 0v121h1085v-121h-1085zM158 795v120h479v482h121v-482h485v-120h-485v-480h-121v480h-479z" />
<glyph unicode="&#xb2;" horiz-adv-x="561" d="M31 639l14 74q39 29 83 66.5t87 74.5t79 69.5t58 53.5q59 57 93 111.5t34 105.5t-33.5 71.5t-72.5 20.5q-43 0 -79 -13t-61 -26l-38 72q41 20 87 35.5t117 15.5q59 0 102.5 -14.5t71 -39t41 -54t13.5 -60.5q0 -49 -23.5 -90t-46.5 -70q-16 -18 -34.5 -37.5t-54.5 -49 t-93.5 -78t-151.5 -123.5h344l-24 -115h-512z" />
<glyph unicode="&#xb3;" horiz-adv-x="561" d="M51 690l41 70q43 -20 81 -33.5t85 -13.5q45 0 78 14t55.5 37.5t33.5 53.5t11 59q0 37 -17.5 58t-44 32.5t-60 13.5t-64.5 2h-37l18 78q61 0 92 2t64 18q41 23 56.5 53.5t15.5 65.5q0 49 -36 68.5t-73 19.5q-33 0 -62.5 -10t-60.5 -25l-34 76q31 14 75.5 27.5t106.5 13.5 q111 0 166 -47t55 -111q0 -45 -16.5 -76.5t-39 -53t-47 -35t-42.5 -21.5q51 -20 86.5 -56t35.5 -96q0 -41 -18 -85t-56 -78.5t-95.5 -57t-135.5 -22.5q-84 0 -136 21.5t-81 37.5z" />
<glyph unicode="&#xb4;" d="M332 1190q55 31 100 57.5t84 53t75 56t71 66.5l133 -45l-47 -137q-117 -10 -206 -44t-180 -75z" />
<glyph unicode="&#xb5;" horiz-adv-x="1128" d="M-43 -229q29 33 50.5 63.5t41 85.5t41 146.5t51.5 244.5l142 701h188l-123 -613q-6 -31 -12 -65.5t-6 -73.5q0 -74 42 -114t101 -40q70 0 122 51.5t88 122t56.5 144.5t30.5 119l94 469h187l-201 -1012h-170l31 178q-10 -16 -34 -49t-59.5 -66.5t-86 -58t-113.5 -24.5 q-49 0 -87 16t-65.5 41.5t-46 54.5t-31.5 53q-12 -61 -19 -101t-11 -67.5t-5 -49t-1 -48.5q0 -68 15 -102.5t28 -55.5l-146 -96z" />
<glyph unicode="&#xb6;" horiz-adv-x="1038" d="M35 944q0 199 136 303.5t378 104.5h495v-62h-143v-1804h-92v1804h-174v-1804h-92v1044q-84 0 -173 17.5t-164 63.5t-123 127t-48 206z" />
<glyph unicode="&#xb7;" horiz-adv-x="505" d="M147 702l168 117l109 -170l-168 -114z" />
<glyph unicode="&#xb8;" d="M57 -356q41 35 70 58.5t47.5 41.5t26.5 31.5t8 29.5t-12.5 36t-36.5 55l135 108q31 -51 46 -80.5t15 -58.5q0 -33 -25.5 -72t-72.5 -76q-41 -33 -81 -63.5t-81 -63.5z" />
<glyph unicode="&#xb9;" horiz-adv-x="561" d="M184 1219l285 141h92l-155 -721h-132l132 602l-185 -94z" />
<glyph unicode="&#xba;" horiz-adv-x="618" d="M119 956v2q0 59 22.5 131t66.5 134.5t110.5 104.5t156.5 42q61 0 102 -20.5t67 -51t37 -69.5t11 -76q0 -68 -22.5 -143.5t-66.5 -139t-110.5 -104.5t-152.5 -41q-104 0 -162.5 65.5t-58.5 165.5zM266 907q0 -35 16.5 -68.5t65.5 -33.5t86 44t61.5 105.5t37 127 t12.5 106.5q0 14 -3 32.5t-12.5 34t-23.5 25.5t-39 10q-43 0 -80 -36.5t-63.5 -93t-42 -124t-15.5 -127.5v-2z" />
<glyph unicode="&#xbb;" horiz-adv-x="794" d="M41 266l192 373l-45 373h80l162 -373l-299 -373h-90zM387 266l193 373l-45 373h79l162 -373l-299 -373h-90z" />
<glyph unicode="&#xbc;" horiz-adv-x="1437" d="M135 -10l1116 1380h113l-1116 -1380h-113zM184 1219l287 141h90l-155 -721h-132l132 602l-185 -94zM827 215l15 68l430 438h90l-90 -424h88l-19 -82h-86l-49 -215h-125l47 215h-301zM958 297h187l55 250z" />
<glyph unicode="&#xbd;" horiz-adv-x="1437" d="M135 -10l1116 1380h113l-1116 -1380h-113zM184 1219l287 141h90l-155 -721h-132l132 602l-185 -94zM788 0l17 74q39 29 83 66.5t87 74.5t79 69.5t58 53.5q59 57 93 111.5t34 105.5q0 49 -34 70.5t-75 21.5t-76.5 -13t-62.5 -28l-37 74q41 20 88.5 35.5t114.5 15.5 q61 0 104.5 -14.5t71 -39t39.5 -54t12 -60.5q0 -49 -22.5 -91t-46.5 -71q-14 -18 -33.5 -36.5t-54.5 -48t-93.5 -78t-150.5 -125.5h344l-27 -113h-512z" />
<glyph unicode="&#xbe;" horiz-adv-x="1437" d="M51 690l41 70q43 -20 81 -33.5t85 -13.5q45 0 78 14t55.5 37.5t33.5 53.5t11 59q0 37 -17.5 58t-44 32.5t-60 13.5t-64.5 2h-37l18 78q61 0 92 2t64 18q41 23 56.5 53.5t15.5 65.5q0 49 -36 68.5t-73 19.5q-33 0 -62.5 -10t-60.5 -25l-34 76q31 14 75.5 27.5t106.5 13.5 q111 0 166 -47t55 -111q0 -45 -16.5 -76.5t-39 -53t-47 -35t-42.5 -21.5q51 -20 86.5 -56t35.5 -96q0 -41 -18 -85t-56 -78.5t-95.5 -57t-135.5 -22.5q-84 0 -136 21.5t-81 37.5zM135 -10l1116 1380h113l-1118 -1380h-111zM827 215l15 68l430 438h90l-90 -424h86l-17 -82 h-86l-49 -215h-125l47 215h-301zM956 297h189l55 250z" />
<glyph unicode="&#xbf;" horiz-adv-x="759" d="M-53 -72q0 51 15 95.5t38 79t51.5 62.5t52.5 48q90 72 148.5 117t94.5 85t55.5 86t31.5 120h96q-8 -72 -21 -118t-42 -91t-80 -99.5t-137 -140.5q-45 -45 -71.5 -104.5t-26.5 -126.5q0 -49 18 -85t49 -58.5t69 -33t79 -10.5q57 0 110 17.5t101 40.5l40 -103 q-47 -20 -119.5 -43.5t-176.5 -23.5q-96 0 -167 24.5t-117 64.5t-68.5 91t-22.5 106zM401 936l166 115l109 -170l-166 -115z" />
<glyph unicode="&#xc0;" horiz-adv-x="1073" d="M-90 0l702 1352h127l217 -1352h-200l-62 449h-397l-225 -449h-162zM348 555h332l-74 518zM416 1704l135 47q35 -39 70.5 -68.5t74.5 -55t84 -52.5t101 -57l-33 -70q-90 41 -178 74.5t-205 46.5z" />
<glyph unicode="&#xc1;" horiz-adv-x="1073" d="M-90 0l702 1352h127l217 -1352h-200l-62 449h-397l-225 -449h-162zM348 555h332l-74 518zM559 1518q55 31 100.5 57.5t84 52t74.5 55t71 68.5l135 -47l-49 -135q-117 -12 -205 -46t-178 -75z" />
<glyph unicode="&#xc2;" horiz-adv-x="1073" d="M-90 0l702 1352h127l217 -1352h-200l-62 449h-397l-225 -449h-162zM340 1493l377 252l274 -252l-43 -68l-254 142l-325 -137zM348 555h332l-74 518z" />
<glyph unicode="&#xc3;" horiz-adv-x="1073" d="M-90 0l702 1352h127l217 -1352h-200l-62 449h-397l-225 -449h-162zM348 555h332l-74 518zM373 1509q12 25 29.5 59t43 64.5t60.5 53t78 22.5q27 0 56.5 -10t100.5 -43q37 -18 59.5 -28.5t37 -15.5t22.5 -7t19 -2q23 0 49 16t61 90l76 -35q-14 -33 -33.5 -67.5t-45 -64.5 t-57.5 -48t-71 -18q-18 0 -34.5 3t-37 11t-51 22.5t-76.5 36.5q-23 10 -49 21.5t-51 11.5q-41 0 -61.5 -25.5t-51.5 -80.5z" />
<glyph unicode="&#xc4;" horiz-adv-x="1073" d="M-90 0l702 1352h127l217 -1352h-200l-62 449h-397l-225 -449h-162zM348 555h332l-74 518zM381 1589l125 84l86 -129l-127 -82zM770 1589l127 84l84 -129l-125 -82z" />
<glyph unicode="&#xc5;" horiz-adv-x="1073" d="M-90 0l702 1352h127l217 -1352h-200l-62 449h-397l-225 -449h-162zM348 555h332l-74 518zM506 1645l225 151l150 -225l-224 -150zM600 1628l76 -115l112 76l-75 115z" />
<glyph unicode="&#xc6;" horiz-adv-x="1536" d="M-109 0l789 1352h940l-25 -121h-475l-94 -473h442l-24 -119h-440l-105 -516h508l-25 -123h-708l125 623h-383l-361 -623h-164zM481 741h342l97 490h-158z" />
<glyph unicode="&#xc7;" horiz-adv-x="1003" d="M102 481q0 88 19.5 187.5t57.5 199t97.5 190.5t140.5 159.5t182 110.5t226 42q76 0 143.5 -14.5t133.5 -46.5l-47 -109q-23 10 -81.5 29.5t-131.5 19.5q-84 0 -154 -34.5t-127 -95t-101 -139.5t-74 -168t-45 -183t-15 -183q0 -86 20.5 -150.5t55 -107.5t78.5 -64.5 t93 -21.5q61 0 125 20.5t168 74.5l56 -105q-55 -29 -100.5 -48t-87.5 -32.5t-84 -21.5t-93 -10q20 -35 32.5 -60.5t12.5 -54.5q0 -43 -41 -89t-100 -95q-25 -20 -54.5 -43t-64.5 -48l-37 54q70 63 110 95t40 66q0 16 -17.5 45t-29.5 46l104 84q-59 4 -124.5 24.5 t-127.5 73.5q-29 23 -56.5 58.5t-50 85.5t-37 114.5t-14.5 144.5z" />
<glyph unicode="&#xc8;" horiz-adv-x="950" d="M86 0l268 1352h680l-24 -121h-475l-95 -473h441l-21 -119h-442l-103 -516h508l-26 -123h-711zM459 1704l133 47q35 -39 70.5 -68.5t74.5 -55t84 -52.5t101 -57l-33 -70q-90 41 -178 74.5t-205 46.5z" />
<glyph unicode="&#xc9;" horiz-adv-x="950" d="M86 0l268 1352h680l-24 -121h-475l-95 -473h441l-21 -119h-442l-103 -516h508l-26 -123h-711zM514 1518q55 31 100 57.5t85 52t75 55t70 68.5l135 -47l-49 -135q-115 -12 -204 -46t-179 -75z" />
<glyph unicode="&#xca;" horiz-adv-x="950" d="M86 0l268 1352h680l-24 -121h-475l-95 -473h441l-21 -119h-442l-103 -516h508l-26 -123h-711zM324 1493l376 252l275 -252l-45 -68l-254 142l-324 -137z" />
<glyph unicode="&#xcb;" horiz-adv-x="950" d="M86 0l268 1352h680l-24 -121h-475l-95 -473h441l-21 -119h-442l-103 -516h508l-26 -123h-711zM379 1589l127 84l84 -129l-127 -82zM770 1589l125 84l86 -129l-127 -82z" />
<glyph unicode="&#xcc;" horiz-adv-x="579" d="M86 0l268 1352h205l-270 -1352h-203zM229 1704l136 47q35 -39 70.5 -68.5t74.5 -55t84 -52.5t100 -57l-32 -70q-90 41 -179.5 74.5t-203.5 46.5z" />
<glyph unicode="&#xcd;" horiz-adv-x="579" d="M86 0l268 1352h205l-270 -1352h-203zM281 1518q55 31 100 57.5t84 52t74.5 55t70.5 68.5l135 -47l-49 -135q-115 -12 -204 -46t-179 -75z" />
<glyph unicode="&#xce;" horiz-adv-x="579" d="M86 0l268 1352h205l-270 -1352h-203zM129 1493l377 252l276 -252l-45 -68l-254 142l-325 -137z" />
<glyph unicode="&#xcf;" horiz-adv-x="579" d="M86 0l268 1352h205l-270 -1352h-203zM166 1589l125 84l86 -129l-127 -82zM555 1589l127 84l84 -129l-125 -82z" />
<glyph unicode="&#xd0;" horiz-adv-x="1263" d="M45 631l21 90h163l125 631h285q47 0 109.5 -1t128 -12.5t128 -38t112.5 -78t80 -133t30 -202.5q0 -84 -16.5 -181.5t-50.5 -195.5t-88 -188.5t-130 -159.5q-66 -61 -135.5 -94t-140 -48.5t-137 -17.5t-126.5 -2h-317l125 631h-166zM313 113h117q78 0 155 9t148 62 q78 57 131.5 154.5t85 207t46 216t14.5 182.5q0 20 -3 54t-14.5 71t-34 72t-63.5 59q-47 29 -102.5 34t-130.5 5h-125l-103 -518h305l-20 -90h-303z" />
<glyph unicode="&#xd1;" horiz-adv-x="1300" d="M86 0l270 1352h131l445 -1024l205 1024h145l-270 -1352h-133l-445 1022l-205 -1022h-143zM487 1509q12 25 30 59t43.5 64.5t60 53t77.5 22.5q27 0 56.5 -10t101.5 -43q37 -18 59.5 -28.5t37 -15.5t22.5 -7t18 -2q23 0 49.5 16t61.5 90l76 -35q-14 -33 -34 -67.5 t-45.5 -64.5t-57 -48t-70.5 -18q-18 0 -34.5 3t-37 11t-51.5 22.5t-76 36.5q-23 10 -48.5 21.5t-51.5 11.5q-41 0 -61.5 -25.5t-51.5 -80.5z" />
<glyph unicode="&#xd2;" horiz-adv-x="1243" d="M102 494v2q0 82 17.5 178t52.5 193.5t89 188.5t130 160.5t172 111.5t215 42q205 0 317.5 -132t112.5 -359q0 -80 -16 -178.5t-50 -198t-87.5 -193.5t-127 -167.5t-171 -117.5t-217.5 -44q-100 0 -181.5 35.5t-137.5 103t-87 163t-31 212.5zM317 410q0 -158 69 -238 t167 -80q80 0 143.5 47t112.5 122t84 170t56.5 192.5t31.5 185.5t10 152q0 59 -12 113t-40 95t-70 64.5t-99 23.5q-78 0 -142.5 -41.5t-114.5 -112.5t-87 -160t-61.5 -183t-36 -185.5t-11.5 -162.5v-2zM547 1704l133 47q35 -39 70.5 -68.5t75.5 -55t85 -52.5t101 -57 l-33 -70q-90 41 -179 74.5t-204 46.5z" />
<glyph unicode="&#xd3;" horiz-adv-x="1243" d="M102 494v2q0 82 17.5 178t52.5 193.5t89 188.5t130 160.5t172 111.5t215 42q205 0 317.5 -132t112.5 -359q0 -80 -16 -178.5t-50 -198t-87.5 -193.5t-127 -167.5t-171 -117.5t-217.5 -44q-100 0 -181.5 35.5t-137.5 103t-87 163t-31 212.5zM317 410q0 -158 69 -238 t167 -80q80 0 143.5 47t112.5 122t84 170t56.5 192.5t31.5 185.5t10 152q0 59 -12 113t-40 95t-70 64.5t-99 23.5q-78 0 -142.5 -41.5t-114.5 -112.5t-87 -160t-61.5 -183t-36 -185.5t-11.5 -162.5v-2zM612 1518q55 31 100.5 57.5t84.5 52t74.5 55t70.5 68.5l133 -47 l-47 -135q-117 -12 -205 -46t-178 -75z" />
<glyph unicode="&#xd4;" horiz-adv-x="1243" d="M102 494v2q0 82 17.5 178t52.5 193.5t89 188.5t130 160.5t172 111.5t215 42q205 0 317.5 -132t112.5 -359q0 -80 -16 -178.5t-50 -198t-87.5 -193.5t-127 -167.5t-171 -117.5t-217.5 -44q-100 0 -181.5 35.5t-137.5 103t-87 163t-31 212.5zM317 410q0 -158 69 -238 t167 -80q80 0 143.5 47t112.5 122t84 170t56.5 192.5t31.5 185.5t10 152q0 59 -12 113t-40 95t-70 64.5t-99 23.5q-78 0 -142.5 -41.5t-114.5 -112.5t-87 -160t-61.5 -183t-36 -185.5t-11.5 -162.5v-2zM459 1493l377 252l274 -252l-43 -68l-256 142l-324 -137z" />
<glyph unicode="&#xd5;" horiz-adv-x="1243" d="M102 494v2q0 82 17.5 178t52.5 193.5t89 188.5t130 160.5t172 111.5t215 42q205 0 317.5 -132t112.5 -359q0 -80 -16 -178.5t-50 -198t-87.5 -193.5t-127 -167.5t-171 -117.5t-217.5 -44q-100 0 -181.5 35.5t-137.5 103t-87 163t-31 212.5zM317 410q0 -158 69 -238 t167 -80q80 0 143.5 47t112.5 122t84 170t56.5 192.5t31.5 185.5t10 152q0 59 -12 113t-40 95t-70 64.5t-99 23.5q-78 0 -142.5 -41.5t-114.5 -112.5t-87 -160t-61.5 -183t-36 -185.5t-11.5 -162.5v-2zM426 1509q12 25 29.5 59t43 64.5t59.5 53t77 22.5q27 0 57.5 -10 t100.5 -43q39 -18 61.5 -28.5t36.5 -15.5t22.5 -7t18.5 -2q23 0 49.5 16t60.5 90l74 -35q-14 -33 -33.5 -67.5t-44 -64.5t-56.5 -48t-71 -18q-18 0 -34.5 3t-38 11t-51 22.5t-76.5 36.5q-23 10 -48.5 21.5t-52.5 11.5q-39 0 -60.5 -25.5t-51.5 -80.5z" />
<glyph unicode="&#xd6;" horiz-adv-x="1243" d="M102 494v2q0 82 17.5 178t52.5 193.5t89 188.5t130 160.5t172 111.5t215 42q205 0 317.5 -132t112.5 -359q0 -80 -16 -178.5t-50 -198t-87.5 -193.5t-127 -167.5t-171 -117.5t-217.5 -44q-100 0 -181.5 35.5t-137.5 103t-87 163t-31 212.5zM317 410q0 -158 69 -238 t167 -80q80 0 143.5 47t112.5 122t84 170t56.5 192.5t31.5 185.5t10 152q0 59 -12 113t-40 95t-70 64.5t-99 23.5q-78 0 -142.5 -41.5t-114.5 -112.5t-87 -160t-61.5 -183t-36 -185.5t-11.5 -162.5v-2zM498 1589l127 84l84 -129l-125 -82zM889 1589l125 84l86 -129l-127 -82 z" />
<glyph unicode="&#xd7;" horiz-adv-x="1366" d="M205 264l411 410l-411 411l84 86l413 -413l412 413l86 -86l-414 -411l410 -410l-86 -86l-408 410l-409 -410z" />
<glyph unicode="&#xd8;" horiz-adv-x="1243" d="M-35 -96l230 278q-88 143 -89 340q0 150 47.5 300.5t133.5 272.5t206.5 198.5t270.5 76.5q61 0 110.5 -13.5t86 -32.5t61.5 -39.5t39 -35.5l162 199h120l-221 -270q47 -78 63.5 -158t16.5 -168q0 -145 -44 -299t-127 -282t-201.5 -209.5t-268.5 -81.5q-59 0 -105 11 t-82 29.5t-64.5 42t-53.5 48.5l-170 -207h-121zM327 397.5q1 -26.5 5 -49.5l622 772q-23 55 -69.5 96t-118.5 41q-104 0 -185 -74.5t-136.5 -191.5t-85 -257t-31.5 -269q-2 -41 -1 -67.5zM358 236q6 -14 19.5 -38t37 -47.5t58.5 -41t84 -17.5q82 0 145.5 47t110.5 122 t79 168t51.5 182t28.5 167t11 123q2 35 1 57.5t-3 45.5z" />
<glyph unicode="&#xd9;" horiz-adv-x="1267" d="M147 336q0 20 2.5 39.5t5.5 44t9 57.5t14 80l160 795h203l-154 -770q-18 -92 -26.5 -148.5t-8.5 -103.5q0 -55 20.5 -97.5t54.5 -71t78 -43t91 -14.5q104 0 169.5 49.5t106.5 121t61.5 154.5t35.5 151l153 772h144l-160 -803q-29 -150 -64.5 -240t-83.5 -145 q-55 -68 -116.5 -106t-117.5 -55t-101 -20t-66 -3q-98 0 -175 27.5t-129 76.5t-79 113.5t-27 138.5zM573 1704l134 47q35 -39 70.5 -68.5t75.5 -55t85 -52.5t100 -57l-32 -70q-90 41 -179.5 74.5t-203.5 46.5z" />
<glyph unicode="&#xda;" horiz-adv-x="1267" d="M147 336q0 20 2.5 39.5t5.5 44t9 57.5t14 80l160 795h203l-154 -770q-18 -92 -26.5 -148.5t-8.5 -103.5q0 -55 20.5 -97.5t54.5 -71t78 -43t91 -14.5q104 0 169.5 49.5t106.5 121t61.5 154.5t35.5 151l153 772h144l-160 -803q-29 -150 -64.5 -240t-83.5 -145 q-55 -68 -116.5 -106t-117.5 -55t-101 -20t-66 -3q-98 0 -175 27.5t-129 76.5t-79 113.5t-27 138.5zM625 1518q55 31 100 57.5t84 52t75 55t70 68.5l136 -47l-50 -135q-117 -12 -204.5 -46t-178.5 -75z" />
<glyph unicode="&#xdb;" horiz-adv-x="1267" d="M147 336q0 20 2.5 39.5t5.5 44t9 57.5t14 80l160 795h203l-154 -770q-18 -92 -26.5 -148.5t-8.5 -103.5q0 -55 20.5 -97.5t54.5 -71t78 -43t91 -14.5q104 0 169.5 49.5t106.5 121t61.5 154.5t35.5 151l153 772h144l-160 -803q-29 -150 -64.5 -240t-83.5 -145 q-55 -68 -116.5 -106t-117.5 -55t-101 -20t-66 -3q-98 0 -175 27.5t-129 76.5t-79 113.5t-27 138.5zM479 1493l377 252l274 -252l-43 -68l-253 142l-326 -137z" />
<glyph unicode="&#xdc;" horiz-adv-x="1267" d="M147 336q0 20 2.5 39.5t5.5 44t9 57.5t14 80l160 795h203l-154 -770q-18 -92 -26.5 -148.5t-8.5 -103.5q0 -55 20.5 -97.5t54.5 -71t78 -43t91 -14.5q104 0 169.5 49.5t106.5 121t61.5 154.5t35.5 151l153 772h144l-160 -803q-29 -150 -64.5 -240t-83.5 -145 q-55 -68 -116.5 -106t-117.5 -55t-101 -20t-66 -3q-98 0 -175 27.5t-129 76.5t-79 113.5t-27 138.5zM520 1589l125 84l86 -129l-127 -82zM909 1589l127 84l84 -129l-125 -82z" />
<glyph unicode="&#xdd;" horiz-adv-x="1011" d="M166 1352h219l219 -609l414 609h162l-525 -740l-123 -612h-200l123 612zM496 1518q55 31 100 57.5t84 52t75 55t70 68.5l136 -47l-50 -135q-115 -12 -204 -46t-179 -75z" />
<glyph unicode="&#xde;" horiz-adv-x="1081" d="M86 0l268 1352h205l-59 -301h100h82t102.5 -7.5t106.5 -23.5t94 -51t67.5 -91.5t26.5 -140.5q0 -25 -9 -72t-35.5 -101t-73 -106t-121.5 -89q-94 -51 -199.5 -59.5t-204.5 -8.5h-88l-59 -301h-203zM373 414h94q59 0 127 6t121 37q35 18 61.5 53t45 76t28.5 87t10 87 q0 68 -26.5 103.5t-65.5 52t-84 18.5t-84 2h-125z" />
<glyph unicode="&#xdf;" horiz-adv-x="1044" d="M-221 -373l20 103q16 -4 32.5 -7.5t41.5 -3.5q57 0 95 32t64.5 93.5t45 151.5t41.5 207l168 889q6 33 19 101.5t57.5 137t131.5 120.5t238 52q59 0 116.5 -15t101.5 -47t72 -80t28 -112q0 -49 -13.5 -118.5t-58.5 -188.5q-18 4 -42 8t-56 4q-63 0 -114.5 -25.5 t-51.5 -92.5q0 -47 35.5 -102.5t78.5 -121.5q41 -66 77 -137.5t36 -148.5q0 -63 -22.5 -126t-68.5 -112t-114.5 -78.5t-161.5 -29.5q-16 0 -41.5 2t-56.5 8t-64.5 17t-64.5 28l45 100q35 -16 76 -29.5t98 -13.5q55 0 94 19.5t64 50.5t36 66.5t11 68.5q0 25 -5 46.5t-17.5 46 t-32 56t-45.5 74.5q-37 57 -61.5 98t-39 72t-19.5 55.5t-5 51.5q0 33 12 72.5t46 76.5t93.5 63.5t151.5 32.5q14 41 27.5 94.5t13.5 110.5q0 49 -17.5 79t-43 46.5t-55.5 22.5t-54 6q-72 0 -116 -29t-69.5 -70.5t-39 -91t-21.5 -92.5l-176 -882q-25 -123 -51.5 -236 t-71.5 -199t-113.5 -137t-179.5 -51q-37 0 -61.5 5t-42.5 9z" />
<glyph unicode="&#xe0;" horiz-adv-x="1026" d="M45 264q0 117 42 251t124 249t198.5 191.5t268.5 76.5q78 0 146.5 -19.5t123.5 -43.5l-194 -969h-174l59 297q-16 -31 -48 -84t-78 -105.5t-107.5 -90t-139.5 -37.5q-102 0 -161.5 73.5t-59.5 210.5zM244 248q0 -16 3 -41t12 -47.5t28.5 -39t50.5 -16.5q37 0 74 25 t71.5 66t64.5 93t52 107q35 86 74 213t78 301q-10 4 -36 10.5t-63 6.5q-90 0 -165.5 -69t-130 -170t-84 -220t-29.5 -217v-2zM371 1378l133 45q35 -37 70.5 -66.5t74.5 -56t84 -53t101 -57.5l-31 -68q-90 41 -179 75t-206 44z" />
<glyph unicode="&#xe1;" horiz-adv-x="1026" d="M45 264q0 117 42 251t124 249t198.5 191.5t268.5 76.5q78 0 146.5 -19.5t123.5 -43.5l-194 -969h-174l59 297q-16 -31 -48 -84t-78 -105.5t-107.5 -90t-139.5 -37.5q-102 0 -161.5 73.5t-59.5 210.5zM244 248q0 -16 3 -41t12 -47.5t28.5 -39t50.5 -16.5q37 0 74 25 t71.5 66t64.5 93t52 107q35 86 74 213t78 301q-10 4 -36 10.5t-63 6.5q-90 0 -165.5 -69t-130 -170t-84 -220t-29.5 -217v-2zM504 1190q55 31 100 57.5t85 53t76 56t71 66.5l133 -45l-49 -137q-115 -10 -204 -44t-179 -75z" />
<glyph unicode="&#xe2;" horiz-adv-x="1026" d="M45 264q0 117 42 251t124 249t198.5 191.5t268.5 76.5q78 0 146.5 -19.5t123.5 -43.5l-194 -969h-174l59 297q-16 -31 -48 -84t-78 -105.5t-107.5 -90t-139.5 -37.5q-102 0 -161.5 73.5t-59.5 210.5zM244 248q0 -16 3 -41t12 -47.5t28.5 -39t50.5 -16.5q37 0 74 25 t71.5 66t64.5 93t52 107q35 86 74 213t78 301q-10 4 -36 10.5t-63 6.5q-90 0 -165.5 -69t-130 -170t-84 -220t-29.5 -217v-2zM317 1165l377 254l277 -254l-45 -65l-254 141l-326 -137z" />
<glyph unicode="&#xe3;" horiz-adv-x="1026" d="M45 264q0 117 42 251t124 249t198.5 191.5t268.5 76.5q78 0 146.5 -19.5t123.5 -43.5l-194 -969h-174l59 297q-16 -31 -48 -84t-78 -105.5t-107.5 -90t-139.5 -37.5q-102 0 -161.5 73.5t-59.5 210.5zM244 248q0 -16 3 -41t12 -47.5t28.5 -39t50.5 -16.5q37 0 74 25 t71.5 66t64.5 93t52 107q35 86 74 213t78 301q-10 4 -36 10.5t-63 6.5q-90 0 -165.5 -69t-130 -170t-84 -220t-29.5 -217v-2zM317 1184q12 25 30 58.5t43.5 64t60 53t77.5 22.5q27 0 57.5 -9t100.5 -44q37 -18 59.5 -28.5t37 -15.5t22.5 -7t18 -2q23 0 49.5 16.5t61.5 89.5 l76 -36q-14 -31 -34 -66t-45.5 -64.5t-57 -48t-70.5 -18.5q-18 0 -34.5 3t-37 11t-51.5 22.5t-76 37.5q-23 10 -48.5 21t-51.5 11q-41 0 -61.5 -25.5t-51.5 -80.5z" />
<glyph unicode="&#xe4;" horiz-adv-x="1026" d="M45 264q0 117 42 251t124 249t198.5 191.5t268.5 76.5q78 0 146.5 -19.5t123.5 -43.5l-194 -969h-174l59 297q-16 -31 -48 -84t-78 -105.5t-107.5 -90t-139.5 -37.5q-102 0 -161.5 73.5t-59.5 210.5zM244 248q0 -16 3 -41t12 -47.5t28.5 -39t50.5 -16.5q37 0 74 25 t71.5 66t64.5 93t52 107q35 86 74 213t78 301q-10 4 -36 10.5t-63 6.5q-90 0 -165.5 -69t-130 -170t-84 -220t-29.5 -217v-2zM358 1262l127 86l84 -129l-127 -82zM748 1262l126 86l84 -129l-124 -82z" />
<glyph unicode="&#xe5;" horiz-adv-x="1026" d="M45 264q0 117 42 251t124 249t198.5 191.5t268.5 76.5q78 0 146.5 -19.5t123.5 -43.5l-194 -969h-174l59 297q-16 -31 -48 -84t-78 -105.5t-107.5 -90t-139.5 -37.5q-102 0 -161.5 73.5t-59.5 210.5zM244 248q0 -16 3 -41t12 -47.5t28.5 -39t50.5 -16.5q37 0 74 25 t71.5 66t64.5 93t52 107q35 86 74 213t78 301q-10 4 -36 10.5t-63 6.5q-90 0 -165.5 -69t-130 -170t-84 -220t-29.5 -217v-2zM477 1319l225 151l150 -225l-223 -149zM571 1300l76 -112l113 76l-76 112z" />
<glyph unicode="&#xe6;" horiz-adv-x="1411" d="M45 264q0 121 43 256t125 249t197.5 188.5t261.5 74.5q29 0 91 -7t140 -40l-37 -151q47 61 94.5 100t92.5 60.5t85 29.5t74 8q104 0 152.5 -53t48.5 -125q0 -76 -32.5 -130t-86 -91t-119 -59.5t-129 -36t-121 -19.5t-91.5 -8q-23 -72 -31 -133.5t-8 -97.5 q0 -82 37.5 -131.5t107.5 -49.5q47 0 111.5 26t158.5 81l58 -92q-102 -59 -189.5 -96t-183.5 -37q-70 0 -120 22.5t-84 59t-52 84t-25 98.5q-31 -51 -68.5 -99.5t-81.5 -85t-93 -58t-105 -21.5q-111 0 -166 77.5t-55 206.5zM244 250q0 -14 2 -39t11 -47.5t27.5 -40 t51.5 -17.5q18 0 42.5 9.5t54.5 33t61.5 62.5t64.5 98t61.5 139t53 163t44 162t32.5 136q-20 10 -46 13.5t-53 3.5q-94 0 -169.5 -71t-128 -174t-81 -220t-28.5 -209v-2zM862 602q49 2 117 11.5t128 36t103 73.5t43 125v2q0 39 -21.5 60.5t-55.5 21.5q-29 0 -66 -16.5 t-78 -55.5t-85 -101.5t-85 -156.5z" />
<glyph unicode="&#xe7;" horiz-adv-x="780" d="M43 301q0 70 18.5 152t54.5 162.5t88 156.5t119.5 133.5t150.5 92t177 34.5q61 0 110.5 -14t78.5 -27l-41 -100q-31 14 -64 22.5t-67 8.5q-86 0 -162 -60.5t-134.5 -155t-92 -207t-33.5 -216.5q0 -98 46 -141.5t99 -43.5t107.5 26t140.5 71l51 -95q-72 -41 -153.5 -76.5 t-171.5 -43.5q23 -35 35 -60.5t12 -54.5q0 -33 -18.5 -61.5t-47.5 -51.5q-41 -37 -84 -72.5t-110 -89.5l-39 54q74 66 111.5 96.5t37.5 64.5q0 16 -12 36t-35 55l104 86q-35 4 -77.5 13t-85.5 44q-53 43 -83 110.5t-30 151.5z" />
<glyph unicode="&#xe8;" horiz-adv-x="854" d="M45 295q0 82 23.5 168t65.5 168t99.5 154.5t125 128t144.5 87t154 31.5q55 0 93 -15.5t63 -40t35 -57t10 -65.5q0 -55 -18.5 -99t-50 -78t-73.5 -58.5t-89 -43.5q-47 -18 -96.5 -29t-95.5 -18.5t-86 -11.5t-68 -6q-25 -66 -33 -130.5t-8 -100.5q0 -82 38.5 -131.5 t106.5 -49.5q47 0 107.5 21.5t164.5 85.5l56 -92q-78 -47 -174.5 -90t-200.5 -43q-125 0 -209 77.5t-84 237.5zM301 1378l133 45q35 -37 71 -66.5t74.5 -56t84 -53t100.5 -57.5l-31 -68q-90 41 -179 75t-206 44zM307 602q47 2 114.5 11.5t129 36t104.5 73.5t43 125v2 q0 37 -21.5 59.5t-55.5 22.5q-27 0 -64 -16.5t-79 -55.5t-86 -102.5t-85 -155.5z" />
<glyph unicode="&#xe9;" horiz-adv-x="854" d="M45 295q0 82 23.5 168t65.5 168t99.5 154.5t125 128t144.5 87t154 31.5q55 0 93 -15.5t63 -40t35 -57t10 -65.5q0 -55 -18.5 -99t-50 -78t-73.5 -58.5t-89 -43.5q-47 -18 -96.5 -29t-95.5 -18.5t-86 -11.5t-68 -6q-25 -66 -33 -130.5t-8 -100.5q0 -82 38.5 -131.5 t106.5 -49.5q47 0 107.5 21.5t164.5 85.5l56 -92q-78 -47 -174.5 -90t-200.5 -43q-125 0 -209 77.5t-84 237.5zM307 602q47 2 114.5 11.5t129 36t104.5 73.5t43 125v2q0 37 -21.5 59.5t-55.5 22.5q-27 0 -64 -16.5t-79 -55.5t-86 -102.5t-85 -155.5zM434 1190 q55 31 100.5 57.5t85 53t74.5 56t70 66.5l135 -45l-49 -137q-115 -10 -204 -44t-179 -75z" />
<glyph unicode="&#xea;" horiz-adv-x="854" d="M45 295q0 82 23.5 168t65.5 168t99.5 154.5t125 128t144.5 87t154 31.5q55 0 93 -15.5t63 -40t35 -57t10 -65.5q0 -55 -18.5 -99t-50 -78t-73.5 -58.5t-89 -43.5q-47 -18 -96.5 -29t-95.5 -18.5t-86 -11.5t-68 -6q-25 -66 -33 -130.5t-8 -100.5q0 -82 38.5 -131.5 t106.5 -49.5q47 0 107.5 21.5t164.5 85.5l56 -92q-78 -47 -174.5 -90t-200.5 -43q-125 0 -209 77.5t-84 237.5zM248 1165l377 254l276 -254l-45 -65l-254 141l-326 -137zM307 602q47 2 114.5 11.5t129 36t104.5 73.5t43 125v2q0 37 -21.5 59.5t-55.5 22.5q-27 0 -64 -16.5 t-79 -55.5t-86 -102.5t-85 -155.5z" />
<glyph unicode="&#xeb;" horiz-adv-x="854" d="M45 295q0 82 23.5 168t65.5 168t99.5 154.5t125 128t144.5 87t154 31.5q55 0 93 -15.5t63 -40t35 -57t10 -65.5q0 -55 -18.5 -99t-50 -78t-73.5 -58.5t-89 -43.5q-47 -18 -96.5 -29t-95.5 -18.5t-86 -11.5t-68 -6q-25 -66 -33 -130.5t-8 -100.5q0 -82 38.5 -131.5 t106.5 -49.5q47 0 107.5 21.5t164.5 85.5l56 -92q-78 -47 -174.5 -90t-200.5 -43q-125 0 -209 77.5t-84 237.5zM289 1262l127 86l84 -129l-127 -82zM307 602q47 2 114.5 11.5t129 36t104.5 73.5t43 125v2q0 37 -21.5 59.5t-55.5 22.5q-27 0 -64 -16.5t-79 -55.5t-86 -102.5 t-85 -155.5zM678 1262l127 86l84 -129l-125 -82z" />
<glyph unicode="&#xec;" horiz-adv-x="526" d="M68 0l200 1012h189l-203 -1012h-186zM109 1378l133 45q35 -37 70.5 -66.5t74.5 -56t84 -53t100 -57.5l-30 -68q-90 41 -179.5 75t-205.5 44z" />
<glyph unicode="&#xed;" horiz-adv-x="526" d="M68 0l200 1012h189l-203 -1012h-186zM244 1190q55 31 100 57.5t85 53t76 56t70 66.5l134 -45l-50 -137q-115 -10 -203.5 -44t-179.5 -75z" />
<glyph unicode="&#xee;" horiz-adv-x="526" d="M68 0l200 1012h189l-203 -1012h-186zM68 1165l376 254l275 -254l-43 -65l-256 141l-324 -137z" />
<glyph unicode="&#xef;" horiz-adv-x="526" d="M68 0l200 1012h189l-203 -1012h-186zM106 1262l127 86l84 -129l-124 -82zM498 1262l125 86l86 -129l-127 -82z" />
<glyph unicode="&#xf0;" horiz-adv-x="980" d="M55 346q0 123 38 246t105.5 221t160 158.5t200.5 60.5q47 0 81 -12t58.5 -30.5t41 -39t26.5 -35.5q-10 74 -22.5 128.5t-27 94.5t-28.5 66.5t-26 46.5l-328 -96l-25 80l303 88q-29 35 -54.5 63.5t-65.5 65.5l77 72q23 -18 74 -61.5t96 -100.5l283 86l25 -80l-254 -76 q66 -98 106.5 -227t40.5 -274q0 -121 -33 -263.5t-101.5 -264.5t-173 -202.5t-247.5 -80.5q-88 0 -150.5 32.5t-102.5 86t-58.5 118t-18.5 129.5zM248 274q0 -16 4 -48.5t19.5 -65.5t45 -56.5t80.5 -23.5q57 0 105.5 37t85.5 95t63.5 132t45 146.5t26.5 138t8 108.5 q0 33 -7 68t-23.5 63.5t-44 46t-68.5 17.5q-76 0 -138.5 -64.5t-107.5 -162t-69.5 -212t-24.5 -217.5v-2z" />
<glyph unicode="&#xf1;" horiz-adv-x="1064" d="M68 0l200 1012h176l-61 -312q78 160 178.5 246t212.5 86q90 0 139.5 -52t49.5 -132q0 -41 -8.5 -93.5t-12.5 -74.5l-135 -680h-189l136 678q2 8 5 26.5t7 41t7 44t3 37.5q0 27 -8 42.5t-20.5 23.5t-25.5 11t-22 3q-43 0 -85 -30.5t-76.5 -72.5t-61 -87t-41.5 -76 q-63 -139 -103 -293.5t-81 -347.5h-184zM338 1184q12 25 29.5 58.5t43 64t59.5 53t77 22.5q27 0 57.5 -10t100.5 -43q39 -18 61 -28.5t36.5 -15.5t23 -7t18.5 -2q23 0 49.5 16.5t60.5 89.5l74 -36q-14 -31 -33.5 -66t-44 -64.5t-56.5 -48t-71 -18.5q-18 0 -34.5 3t-38 11 t-51 22.5t-76.5 37.5q-23 10 -48.5 21t-52.5 11q-41 0 -61.5 -25.5t-50.5 -80.5z" />
<glyph unicode="&#xf2;" horiz-adv-x="980" d="M55 350v2q0 96 33 215t100.5 222.5t171 173t242.5 69.5q92 0 153.5 -32.5t99.5 -84t54.5 -113t16.5 -118.5q0 -111 -35 -234.5t-102.5 -228t-169 -173t-234.5 -68.5q-80 0 -141.5 28.5t-103.5 78.5t-63.5 117.5t-21.5 145.5zM250 274q0 -16 4 -48.5t19.5 -65.5t44 -56.5 t79.5 -23.5q57 0 104.5 36t84.5 94t64.5 131t45 146.5t26.5 139t9 110.5q0 35 -8 70t-24.5 62.5t-44 45t-66.5 17.5q-74 0 -136.5 -63.5t-107.5 -161t-69.5 -213t-24.5 -218.5v-2zM342 1378l133 45q35 -37 71 -66.5t74.5 -56t84 -53t100.5 -57.5l-33 -68q-90 41 -178 75 t-205 44z" />
<glyph unicode="&#xf3;" horiz-adv-x="980" d="M55 350v2q0 96 33 215t100.5 222.5t171 173t242.5 69.5q92 0 153.5 -32.5t99.5 -84t54.5 -113t16.5 -118.5q0 -111 -35 -234.5t-102.5 -228t-169 -173t-234.5 -68.5q-80 0 -141.5 28.5t-103.5 78.5t-63.5 117.5t-21.5 145.5zM250 274q0 -16 4 -48.5t19.5 -65.5t44 -56.5 t79.5 -23.5q57 0 104.5 36t84.5 94t64.5 131t45 146.5t26.5 139t9 110.5q0 35 -8 70t-24.5 62.5t-44 45t-66.5 17.5q-74 0 -136.5 -63.5t-107.5 -161t-69.5 -213t-24.5 -218.5v-2zM473 1190q55 31 100 57.5t84 53t75 56t71 66.5l135 -45l-49 -137q-115 -10 -204 -44 t-179 -75z" />
<glyph unicode="&#xf4;" horiz-adv-x="980" d="M55 350v2q0 96 33 215t100.5 222.5t171 173t242.5 69.5q92 0 153.5 -32.5t99.5 -84t54.5 -113t16.5 -118.5q0 -111 -35 -234.5t-102.5 -228t-169 -173t-234.5 -68.5q-80 0 -141.5 28.5t-103.5 78.5t-63.5 117.5t-21.5 145.5zM250 274q0 -16 4 -48.5t19.5 -65.5t44 -56.5 t79.5 -23.5q57 0 104.5 36t84.5 94t64.5 131t45 146.5t26.5 139t9 110.5q0 35 -8 70t-24.5 62.5t-44 45t-66.5 17.5q-74 0 -136.5 -63.5t-107.5 -161t-69.5 -213t-24.5 -218.5v-2zM295 1165l377 254l276 -254l-45 -65l-254 141l-325 -137z" />
<glyph unicode="&#xf5;" horiz-adv-x="980" d="M55 350v2q0 96 33 215t100.5 222.5t171 173t242.5 69.5q92 0 153.5 -32.5t99.5 -84t54.5 -113t16.5 -118.5q0 -111 -35 -234.5t-102.5 -228t-169 -173t-234.5 -68.5q-80 0 -141.5 28.5t-103.5 78.5t-63.5 117.5t-21.5 145.5zM250 274q0 -16 4 -48.5t19.5 -65.5t44 -56.5 t79.5 -23.5q57 0 104.5 36t84.5 94t64.5 131t45 146.5t26.5 139t9 110.5q0 35 -8 70t-24.5 62.5t-44 45t-66.5 17.5q-74 0 -136.5 -63.5t-107.5 -161t-69.5 -213t-24.5 -218.5v-2zM295 1184q12 25 29.5 58.5t43 64t60.5 53t78 22.5q27 0 57.5 -9t100.5 -44q37 -18 59 -28.5 t36.5 -15.5t23 -7t18.5 -2q23 0 49.5 16.5t60.5 89.5l76 -36q-14 -31 -33.5 -66t-45 -64.5t-57.5 -48t-71 -18.5q-18 0 -34.5 3t-37 11t-51 22.5t-75.5 37.5q-23 10 -48.5 21t-52.5 11q-41 0 -61.5 -25.5t-50.5 -80.5z" />
<glyph unicode="&#xf6;" horiz-adv-x="980" d="M55 350v2q0 96 33 215t100.5 222.5t171 173t242.5 69.5q92 0 153.5 -32.5t99.5 -84t54.5 -113t16.5 -118.5q0 -111 -35 -234.5t-102.5 -228t-169 -173t-234.5 -68.5q-80 0 -141.5 28.5t-103.5 78.5t-63.5 117.5t-21.5 145.5zM250 274q0 -16 4 -48.5t19.5 -65.5t44 -56.5 t79.5 -23.5q57 0 104.5 36t84.5 94t64.5 131t45 146.5t26.5 139t9 110.5q0 35 -8 70t-24.5 62.5t-44 45t-66.5 17.5q-74 0 -136.5 -63.5t-107.5 -161t-69.5 -213t-24.5 -218.5v-2zM336 1262l127 86l84 -129l-127 -82zM725 1262l127 86l84 -129l-125 -82z" />
<glyph unicode="&#xf7;" horiz-adv-x="1366" d="M160 616v117h1083v-117h-1083zM588 260l112 111l111 -111l-111 -110zM588 1090l110 110l111 -110l-111 -111z" />
<glyph unicode="&#xf8;" horiz-adv-x="980" d="M-45 -96l172 219q-70 104 -70 248q0 113 40 230.5t111 212.5t167 156.5t211 61.5q66 0 117 -20.5t92 -53.5l116 150h115l-168 -209q66 -88 66 -229q0 -127 -39 -250t-108.5 -221.5t-166 -158.5t-209.5 -60q-92 0 -140 29.5t-68 47.5l-125 -153h-113zM257 321.5 q-1 -24.5 1 -42.5l449 573q-10 35 -40 57.5t-79 22.5q-55 0 -100.5 -31t-81 -80t-63.5 -111.5t-45 -125t-26.5 -118.5t-11.5 -93q-2 -27 -3 -51.5zM276 160q12 -29 40 -54.5t83 -25.5t100.5 31.5t81 82t61.5 113t43 126t25.5 119.5t10.5 95q2 20 3 41t1 45z" />
<glyph unicode="&#xf9;" horiz-adv-x="1064" d="M100 166q0 41 6.5 82t14.5 80l137 684h188l-137 -680q-6 -35 -12 -73t-6 -69t10 -47t24.5 -25t27 -11.5t16.5 -2.5q39 0 71.5 19.5t60 50.5t50 65.5t41.5 65.5q45 78 80 176.5t62.5 196.5t46 187t30.5 147h186l-202 -1012h-177l62 303q-27 -47 -62.5 -103.5t-84 -105.5 t-107.5 -81.5t-133 -32.5q-78 0 -135.5 45t-57.5 141zM383 1378l133 45q35 -37 71 -66.5t75.5 -56t85 -53t100.5 -57.5l-33 -68q-90 41 -179 75t-204 44z" />
<glyph unicode="&#xfa;" horiz-adv-x="1064" d="M100 166q0 41 6.5 82t14.5 80l137 684h188l-137 -680q-6 -35 -12 -73t-6 -69t10 -47t24.5 -25t27 -11.5t16.5 -2.5q39 0 71.5 19.5t60 50.5t50 65.5t41.5 65.5q45 78 80 176.5t62.5 196.5t46 187t30.5 147h186l-202 -1012h-177l62 303q-27 -47 -62.5 -103.5t-84 -105.5 t-107.5 -81.5t-133 -32.5q-78 0 -135.5 45t-57.5 141zM516 1190q55 31 100.5 57.5t84 53t74.5 56t71 66.5l133 -45l-47 -137q-117 -10 -206 -44t-179 -75z" />
<glyph unicode="&#xfb;" horiz-adv-x="1064" d="M100 166q0 41 6.5 82t14.5 80l137 684h188l-137 -680q-6 -35 -12 -73t-6 -69t10 -47t24.5 -25t27 -11.5t16.5 -2.5q39 0 71.5 19.5t60 50.5t50 65.5t41.5 65.5q45 78 80 176.5t62.5 196.5t46 187t30.5 147h186l-202 -1012h-177l62 303q-27 -47 -62.5 -103.5t-84 -105.5 t-107.5 -81.5t-133 -32.5q-78 0 -135.5 45t-57.5 141zM338 1165l377 254l274 -254l-43 -65l-256 141l-323 -137z" />
<glyph unicode="&#xfc;" horiz-adv-x="1064" d="M100 166q0 41 6.5 82t14.5 80l137 684h188l-137 -680q-6 -35 -12 -73t-6 -69t10 -47t24.5 -25t27 -11.5t16.5 -2.5q39 0 71.5 19.5t60 50.5t50 65.5t41.5 65.5q45 78 80 176.5t62.5 196.5t46 187t30.5 147h186l-202 -1012h-177l62 303q-27 -47 -62.5 -103.5t-84 -105.5 t-107.5 -81.5t-133 -32.5q-78 0 -135.5 45t-57.5 141zM377 1262l127 86l84 -129l-125 -82zM768 1262l127 86l84 -129l-127 -82z" />
<glyph unicode="&#xfd;" horiz-adv-x="890" d="M-90 -373q61 41 119.5 90.5t108.5 99.5t90 97t69 86q6 55 8 156.5t-14.5 234.5t-58.5 292t-126 329h211q20 -43 47 -116t50.5 -170t39 -217t9.5 -257q25 39 65.5 115.5t85.5 177t87 220.5t67 247h137q-33 -160 -105.5 -337t-174 -358.5t-228.5 -357.5t-266 -332h-221z M426 1190q55 31 100 57.5t85 53t76 56t71 66.5l133 -45l-47 -137q-117 -10 -206 -44t-179 -75z" />
<glyph unicode="&#xfe;" horiz-adv-x="1042" d="M-6 -373l371 1858h186l-152 -754q74 139 170.5 220t204.5 81q59 0 101.5 -23.5t69 -62.5t38.5 -88t12 -98q0 -68 -16 -152t-49 -170t-83 -167t-117.5 -144.5t-154 -102t-190.5 -38.5q-45 0 -77 5t-54 9l-74 -373h-186zM272 102q18 -4 41 -7t56 -3q80 0 142 39 t109.5 101.5t81 139.5t55 151.5t31 140t9.5 104.5v2q0 10 -1 32.5t-10.5 45t-29 40t-54.5 17.5t-67.5 -19.5t-60 -47t-49 -57t-33.5 -50.5q-45 -70 -80 -153.5t-61.5 -169.5t-46 -166t-32.5 -140z" />
<glyph unicode="&#xff;" horiz-adv-x="890" d="M-90 -373q61 41 119.5 90.5t108.5 99.5t90 97t69 86q6 55 8 156.5t-14.5 234.5t-58.5 292t-126 329h211q20 -43 47 -116t50.5 -170t39 -217t9.5 -257q25 39 65.5 115.5t85.5 177t87 220.5t67 247h137q-33 -160 -105.5 -337t-174 -358.5t-228.5 -357.5t-266 -332h-221z M289 1262l127 86l84 -129l-125 -82zM680 1262l125 86l86 -129l-127 -82z" />
<glyph unicode="&#x131;" horiz-adv-x="526" d="M68 0l200 1012h189l-203 -1012h-186z" />
<glyph unicode="&#x141;" horiz-adv-x="886" d="M37 510l20 102l168 80l131 660h203l-108 -557l294 133l-20 -105l-299 -135l-111 -567h482l-23 -121h-688l115 588z" />
<glyph unicode="&#x142;" horiz-adv-x="526" d="M-10 543l20 104l207 94l148 744h186l-129 -651l199 90l-19 -105l-205 -90l-143 -729h-186l125 635z" />
<glyph unicode="&#x152;" horiz-adv-x="1673" d="M102 492q0 156 47.5 313.5t133.5 282t205.5 203.5t265.5 79q104 0 190 -48t143 -157l39 187h631l-24 -121h-473l-97 -473h443l-23 -119h-442l-103 -516h508l-26 -123h-664l39 203q-47 -70 -96 -114t-97.5 -68.5t-94.5 -32.5t-87 -8q-96 0 -173 37.5t-131 105t-84 162 t-30 207.5zM317 410q0 -158 68 -238t168 -80q80 0 143.5 47t112.5 124t83 172t55.5 191.5t31.5 184.5t10 150q0 59 -12 113t-40 95t-70 64.5t-99 23.5q-78 0 -141.5 -41.5t-113.5 -112.5t-87 -160t-61.5 -183t-36 -185.5t-11.5 -162.5v-2z" />
<glyph unicode="&#x153;" horiz-adv-x="1460" d="M49 352q0 109 37 228.5t106.5 220t168 166t219.5 65.5q18 0 62 -5t91 -28.5t88 -69.5t56 -126q33 45 74.5 86t92 72.5t105.5 51t115 19.5q53 0 91 -14t62.5 -39t35.5 -57.5t11 -67.5q0 -76 -32.5 -129t-84 -91t-117 -60.5t-129 -36t-120.5 -19.5t-94 -8q-23 -66 -32 -127 t-9 -107q0 -80 38 -129t109 -49q43 0 103.5 21.5t167.5 85.5l55 -92q-104 -63 -191.5 -98t-179.5 -35q-35 0 -70.5 7t-69.5 26.5t-62.5 54t-47.5 88.5q-18 -25 -49 -54.5t-71.5 -57.5t-92 -46t-110.5 -18q-72 0 -131.5 26.5t-102.5 74.5t-67.5 116.5t-24.5 154.5zM244 276 q0 -12 3 -44.5t16 -66.5t43 -59.5t85 -25.5q57 0 105.5 37t85 95t64.5 132t46.5 146.5t26.5 139t8 109.5q0 35 -8 69t-24.5 61.5t-44 45t-66.5 17.5q-80 0 -142.5 -66.5t-106.5 -166t-67.5 -213t-23.5 -207.5v-3zM913 602q49 2 117 11.5t128.5 36t103.5 73.5t43 125v2 q0 39 -22.5 60.5t-57.5 21.5q-27 0 -64 -16.5t-78 -55.5t-85 -101.5t-85 -156.5z" />
<glyph unicode="&#x160;" horiz-adv-x="849" d="M-2 72l53 106q41 -23 111.5 -50.5t156.5 -27.5q70 0 120 21.5t84 57.5t50.5 79t16.5 86q0 59 -41 117.5t-129 140.5l-29 27q-45 43 -83 84t-66.5 84t-45 91t-16.5 103q0 84 34 153.5t94.5 120t143.5 78t181 27.5q57 0 124.5 -12t135.5 -43l-47 -109q-43 16 -96.5 29.5 t-114.5 13.5q-117 0 -192.5 -60.5t-75.5 -162.5q0 -72 38.5 -126t98.5 -107l43 -37q59 -53 103 -98.5t72 -89.5t41 -89t13 -96q0 -78 -30.5 -150.5t-89 -129t-142.5 -90t-188 -33.5q-184 0 -328 92zM305 1683l43 66l254 -141l326 137l28 -62l-376 -253z" />
<glyph unicode="&#x161;" horiz-adv-x="694" d="M-20 55l51 95q31 -16 85 -39t128 -23q49 0 86 14.5t59.5 38t33.5 52t11 59.5q0 51 -33.5 98t-93.5 109l-51 51q-74 76 -101.5 130t-27.5 114q0 57 26.5 107t72.5 88t110.5 60.5t138.5 22.5q66 0 121 -15.5t92 -31.5l-41 -100q-59 25 -99 32t-69 7q-88 0 -133 -42t-45 -94 q0 -37 20.5 -70.5t81.5 -94.5l41 -43q68 -68 116 -135.5t48 -157.5q0 -49 -19.5 -102.5t-62.5 -99.5t-111.5 -75.5t-166.5 -29.5q-78 0 -143.5 20t-124.5 55zM190 1358l43 65l256 -141l324 137l29 -61l-375 -254z" />
<glyph unicode="&#x178;" horiz-adv-x="1011" d="M166 1352h219l219 -609l414 609h162l-525 -740l-123 -612h-200l123 612zM391 1589l125 84l86 -129l-127 -82zM780 1589l127 84l84 -129l-125 -82z" />
<glyph unicode="&#x17d;" horiz-adv-x="1003" d="M-57 0l20 100l864 1131h-624l24 121h867l-21 -101l-860 -1128h696l-24 -123h-942zM385 1683l45 66l254 -141l326 137l28 -62l-376 -253z" />
<glyph unicode="&#x17e;" horiz-adv-x="860" d="M-55 31l637 766q-16 -2 -28.5 -2t-29.5 6q-29 8 -92 53q-57 41 -79.5 48t-33.5 7q-10 0 -20 -2t-24.5 -9t-33 -21.5t-44.5 -38.5l-74 73q39 45 92 83t121 38q41 0 78 -11t110 -38q61 -23 91 -29t47 -6q47 0 89 23.5t83 66.5l59 -55l-627 -758q12 4 33 4q35 0 72 -19.5 t72.5 -44t70.5 -44t66 -19.5q20 0 39.5 11.5t38 28t33 35t24.5 30.5l86 -64q-70 -90 -126.5 -126.5t-111.5 -36.5q-25 0 -47 3t-50 10t-63.5 19.5t-89.5 30.5q-29 10 -62.5 16.5t-60.5 6.5q-53 0 -98 -24t-90 -69zM274 1358l43 65l254 -141l326 137l29 -61l-377 -254z" />
<glyph unicode="&#x192;" horiz-adv-x="937" d="M-39 -362l29 104q23 -10 41 -12t30 -2q76 0 116 64.5t71 211.5l149 756h-198l16 84h201l59 293q12 59 29.5 122.5t54.5 117t98.5 87t161.5 33.5q49 0 79 -5t50 -9l-26 -111q-20 6 -40 10t-40 4q-47 0 -76 -21.5t-47.5 -54t-27.5 -72.5t-17 -77l-66 -317h223l-16 -84h-223 l-129 -641q-16 -84 -40 -173t-65 -162t-106.5 -120t-165.5 -47q-16 0 -50 3t-75 18z" />
<glyph unicode="&#x2c6;" d="M145 1165l377 254l275 -254l-43 -65l-256 141l-324 -137z" />
<glyph unicode="&#x2c7;" d="M184 1358l43 65l254 -141l326 137l29 -61l-377 -254z" />
<glyph unicode="&#x2c9;" d="M176 1196l23 117h604l-23 -117h-604z" />
<glyph unicode="&#x2d8;" d="M170 1395h78q18 -37 48 -60.5t64.5 -38t71.5 -19.5t68 -5q70 0 119 13t81.5 31.5t53 40t32.5 38.5h80q-20 -74 -62 -124t-94.5 -82t-109.5 -46.5t-108 -14.5t-105.5 14.5t-100.5 46.5t-78 83t-38 123z" />
<glyph unicode="&#x2d9;" d="M381 1262l127 86l84 -129l-127 -82z" />
<glyph unicode="&#x2da;" d="M305 1319l225 151l150 -225l-225 -149zM397 1300l76 -112l115 76l-78 112z" />
<glyph unicode="&#x2db;" d="M-61 -256q0 53 53 113q29 31 74 65.5t108 77.5h80q-29 -23 -56.5 -47.5t-50 -49t-37 -49t-14.5 -49.5q0 -41 25.5 -54t48.5 -13q37 0 77 14.5t83 34.5l24 -63q-25 -12 -57.5 -26.5t-68 -28t-74.5 -21.5t-76 -8q-25 0 -49.5 6t-44 18t-32.5 31.5t-13 48.5z" />
<glyph unicode="&#x2dc;" d="M145 1184q10 25 29 58.5t44.5 64t59 53t76.5 22.5q27 0 57.5 -10t100.5 -43q39 -18 61.5 -28.5t37 -15.5t22.5 -7t18 -2q23 0 48.5 16.5t62.5 89.5l74 -36q-14 -31 -34 -66t-44.5 -64.5t-56 -48t-70.5 -18.5q-18 0 -34.5 3t-38 11t-51.5 22.5t-77 37.5q-23 10 -48.5 21 t-51.5 11q-41 0 -61.5 -25.5t-51.5 -80.5z" />
<glyph unicode="&#x2dd;" d="M195 1163q20 16 50.5 45t65.5 66t70 80t63 92h142l-29 -141q-47 -16 -94 -42t-90 -53.5t-78 -55.5t-57 -46zM551 1163q20 16 51 45t67 66t70.5 80t61.5 92h141l-29 -141q-51 -18 -99 -44t-90 -54.5t-75 -54.5t-53 -44z" />
<glyph unicode="&#x3a9;" horiz-adv-x="1286" d="M-12 0l22 131h264l2 6q-39 45 -70.5 106.5t-50 136.5t-20.5 162t17 185q27 139 90 255t151 200t196.5 131t225.5 47q123 0 210 -52.5t138 -138.5t65.5 -198.5t-9.5 -233.5q-18 -102 -57.5 -192t-87.5 -167t-103.5 -137.5t-108.5 -103.5l-2 -6h266l-24 -131h-440l18 96 q55 35 112.5 91.5t108.5 133t91 173t63 211.5q18 92 13 185t-37 168t-92 121t-153 46q-86 0 -164.5 -41t-141 -112t-108.5 -167t-67 -207q-20 -106 -17 -200.5t23.5 -172t55 -137t77.5 -92.5l-18 -96h-438z" />
<glyph unicode="&#x3bc;" horiz-adv-x="1128" d="M-43 -229q29 33 50.5 63.5t41 85.5t41 146.5t51.5 244.5l142 701h188l-123 -613q-6 -31 -12 -65.5t-6 -73.5q0 -74 42 -114t101 -40q70 0 122 51.5t88 122t56.5 144.5t30.5 119l94 469h187l-201 -1012h-170l31 178q-10 -16 -34 -49t-59.5 -66.5t-86 -58t-113.5 -24.5 q-49 0 -87 16t-65.5 41.5t-46 54.5t-31.5 53q-12 -61 -19 -101t-11 -67.5t-5 -49t-1 -48.5q0 -68 15 -102.5t28 -55.5l-146 -96z" />
<glyph unicode="&#x3c0;" horiz-adv-x="1044" d="M8 0q41 80 84 189.5t83 227.5t74 234.5t54 208.5q-82 0 -126 -5t-73 -15l-2 106q39 23 104.5 38t174.5 15h725l-41 -139h-141l-113 -584q-23 -115 -28 -176t-1 -100h-151q-10 25 -6 89.5t26 176.5l115 594h-307q-23 -90 -56.5 -207.5t-74.5 -239.5t-85 -231.5t-83 -181.5 h-152z" />
<glyph unicode="&#x2000;" horiz-adv-x="898" />
<glyph unicode="&#x2001;" horiz-adv-x="1796" />
<glyph unicode="&#x2002;" horiz-adv-x="898" />
<glyph unicode="&#x2003;" horiz-adv-x="1796" />
<glyph unicode="&#x2004;" horiz-adv-x="598" />
<glyph unicode="&#x2005;" horiz-adv-x="449" />
<glyph unicode="&#x2006;" horiz-adv-x="299" />
<glyph unicode="&#x2007;" horiz-adv-x="299" />
<glyph unicode="&#x2008;" horiz-adv-x="224" />
<glyph unicode="&#x2009;" horiz-adv-x="359" />
<glyph unicode="&#x200a;" horiz-adv-x="99" />
<glyph unicode="&#x2010;" horiz-adv-x="546" d="M66 459l30 147h391l-30 -147h-391z" />
<glyph unicode="&#x2011;" horiz-adv-x="546" d="M66 459l30 147h391l-30 -147h-391z" />
<glyph unicode="&#x2012;" horiz-adv-x="546" d="M66 459l30 147h391l-30 -147h-391z" />
<glyph unicode="&#x2013;" horiz-adv-x="1024" d="M-18 473v119h1048v-119h-1048z" />
<glyph unicode="&#x2014;" horiz-adv-x="2048" d="M-18 473v119h2072v-119h-2072z" />
<glyph unicode="&#x2018;" horiz-adv-x="417" d="M178 1128q0 66 39 125.5t86 110.5q41 47 77 84t66 72l58 -58q-27 -29 -53.5 -61.5t-59.5 -69.5q-49 -61 -49 -108q0 -29 12.5 -51.5t28.5 -45.5q6 -10 21.5 -31.5t25.5 -31.5l-166 -119q-10 16 -20.5 33.5t-20.5 34.5q-14 20 -29.5 45.5t-15.5 70.5z" />
<glyph unicode="&#x2019;" horiz-adv-x="417" d="M178 1001q25 29 52.5 62t60.5 70q49 61 49 108q0 29 -12.5 52.5t-28.5 43.5q-6 10 -21.5 32t-25.5 34l164 117l43 -68q14 -20 28.5 -46t14.5 -71q0 -66 -38 -124t-87 -111q-41 -45 -77 -83t-64 -73z" />
<glyph unicode="&#x201a;" horiz-adv-x="499" d="M-41 -270q25 29 52.5 61.5t60.5 69.5q47 59 47 108q0 29 -11.5 51.5t-27.5 45.5q-6 10 -21.5 31.5t-25.5 31.5l164 119l43 -68q14 -20 28.5 -45.5t14.5 -71.5q0 -66 -39 -124t-86 -111q-41 -47 -77 -84t-65 -72z" />
<glyph unicode="&#x201c;" horiz-adv-x="757" d="M178 1128q0 66 39 125.5t86 110.5q41 47 77 84t66 72l58 -58q-25 -29 -52.5 -61.5t-60.5 -69.5q-49 -61 -49 -108q0 -29 12.5 -51.5t28.5 -45.5q6 -10 21.5 -31.5t25.5 -31.5l-166 -119q-10 16 -20.5 33.5t-20.5 34.5q-14 20 -29.5 45.5t-15.5 70.5zM518 1128 q0 66 38 125.5t85 110.5q43 47 78 84t65 72l58 -58q-27 -29 -53.5 -61.5t-59.5 -69.5q-49 -61 -49 -108q0 -29 12.5 -51.5t28.5 -45.5q6 -10 21.5 -31.5t25.5 -31.5l-164 -119q-12 16 -22.5 33.5t-20.5 34.5q-14 20 -28.5 45.5t-14.5 70.5z" />
<glyph unicode="&#x201d;" horiz-adv-x="757" d="M178 1001q25 29 52.5 62t60.5 72q49 59 49 106q0 29 -12.5 52.5t-28.5 43.5q-6 10 -21.5 32t-25.5 34l164 117q10 -16 21.5 -33t21.5 -33q14 -23 28.5 -48.5t14.5 -70.5q0 -66 -38 -124t-87 -111q-41 -45 -77 -83t-64 -73zM516 1001q27 29 54.5 62t58.5 72q49 59 49 106 q0 29 -12.5 52.5t-28.5 43.5q-6 10 -21.5 32t-25.5 34l166 117q10 -16 20 -33t21 -33q14 -23 29.5 -48.5t15.5 -70.5q0 -66 -39 -124t-86 -111q-43 -45 -78 -83t-66 -73z" />
<glyph unicode="&#x201e;" horiz-adv-x="827" d="M-41 -272q25 29 52.5 61.5l60.5 71.5q47 57 47 106q0 29 -11.5 52.5t-27.5 43.5q-6 10 -21.5 32t-25.5 34l164 117q10 -16 21 -32.5t22 -33.5q14 -23 28.5 -48.5t14.5 -70.5q0 -66 -39 -124t-86 -111q-41 -45 -77 -83t-65 -73zM297 -272q49 55 113 131q49 61 49 108 q0 29 -12.5 51.5t-28.5 44.5q-6 10 -21.5 32t-25.5 32l164 119l43 -68q14 -20 28.5 -46t14.5 -71q0 -66 -38 -124t-85 -111q-43 -47 -78 -84t-66 -72z" />
<glyph unicode="&#x2020;" horiz-adv-x="1058" d="M139 926l140 116q27 -20 54 -34.5t61 -23.5t79 -14t107 -5q6 33 15 104.5t9 149.5q0 72 -17.5 108.5t-27.5 52.5l172 144l113 -142q-37 -29 -65.5 -74.5t-51 -102t-39 -119t-29.5 -121.5q49 0 92.5 3t83 10t78.5 22.5t80 41.5l94 -116l-143 -119q-29 25 -56.5 39 t-63.5 23.5t-80 13.5t-101 4q-4 -25 -8 -55.5t-4 -71.5q0 -86 24.5 -128t44.5 -67q-35 -33 -73.5 -85t-77.5 -165q-8 -25 -19.5 -71.5t-23.5 -100t-22.5 -104.5t-16.5 -82l-64 -315h-96l64 315q20 100 36.5 208.5t16.5 213.5q0 78 -16.5 121t-28.5 65q92 72 131 157t55 165 q-68 0 -117 -4t-85.5 -13.5t-67.5 -25t-64 -37.5z" />
<glyph unicode="&#x2021;" horiz-adv-x="1200" d="M68 221l143 117q43 -47 112.5 -62.5t186.5 -15.5q4 20 7 50t3 69q0 84 -25.5 125t-45.5 63q49 37 81.5 79t54 84t33 82t17.5 75q-94 -2 -173 -13.5t-159 -66.5l-94 119l141 116q70 -47 142.5 -61t158.5 -16q10 55 17.5 118.5t7.5 133.5q0 72 -16.5 110.5t-26.5 54.5 l170 142l115 -142q-80 -82 -121 -191.5t-66 -225.5q57 0 100 3t80 11t73 23.5t79 39.5l94 -116l-141 -119q-33 25 -62.5 39t-63.5 22.5t-75 11.5t-98 7q-4 -25 -9.5 -59.5t-5.5 -79.5q0 -72 24 -112t46 -69q-74 -53 -117 -123.5t-65 -183.5q53 2 98 4t85 9.5t76 22.5t73 42 l94 -117l-142 -119q-29 20 -54 36t-58 25t-77 13t-110 6q-14 -80 -21 -138t-7 -114q0 -66 16.5 -104.5t30.5 -63.5l-172 -139l-113 139q37 43 64.5 85t49 90.5t39 106.5t32.5 138q-68 0 -116 -4t-85 -13t-67.5 -23.5t-63.5 -39.5z" />
<glyph unicode="&#x2022;" horiz-adv-x="962" d="M260 698q0 53 20.5 100.5t55.5 83.5t82 56t100 20t100.5 -20t83 -56t56 -83t20.5 -101v-2q0 -53 -20.5 -100t-56 -82t-83 -55.5t-100.5 -20.5t-100 20.5t-82 55.5t-55.5 83t-20.5 101z" />
<glyph unicode="&#x2026;" horiz-adv-x="2043" d="M117 129l168 115l108 -170l-168 -115zM801 129l168 115l108 -170l-168 -115zM1485 129l168 115l108 -170l-168 -115z" />
<glyph unicode="&#x202f;" horiz-adv-x="359" />
<glyph unicode="&#x2030;" horiz-adv-x="1998" d="M104 856v2q0 55 16.5 142t55.5 169t103.5 141.5t162.5 59.5q57 0 95 -21.5t59.5 -53t30 -68.5t8.5 -68q0 -35 -6 -88t-21.5 -111.5t-40 -118t-61.5 -106.5t-87 -76.5t-116 -29.5q-53 0 -90 18.5t-61.5 50t-36 72.5t-11.5 86zM135 -10l1116 1380h113l-1118 -1380h-111z M236 811q0 -6 1 -23.5t8 -36t21.5 -31.5t42.5 -13q47 0 83 62t60.5 145t38 164t13.5 118t-14.5 67.5t-55.5 30.5q-45 0 -82 -55t-62.5 -132t-39.5 -159t-14 -135v-2zM862 215v2q0 55 16.5 143.5t56.5 170t104.5 141t162.5 59.5q57 0 95 -21.5t59.5 -53t30 -68.5t8.5 -68 q0 -35 -6.5 -88t-21.5 -111.5t-39.5 -118t-61.5 -106.5t-87.5 -76.5t-115.5 -29.5q-53 0 -91 18.5t-62.5 50t-36 72.5t-11.5 84zM993 172q0 -8 1 -25.5t8.5 -36t22.5 -31.5t42 -13q33 0 59.5 29.5t49 75.5t39 103.5t27.5 111.5t16.5 100t5.5 69q0 39 -14.5 69.5t-55.5 30.5 q-47 0 -84 -55t-62.5 -132t-40 -159t-14.5 -135v-2zM1423 215v2q0 55 16.5 143.5t56.5 170t104.5 141t162.5 59.5q57 0 95 -21.5t59.5 -53t30 -68.5t8.5 -68q0 -35 -6 -88t-21.5 -111.5t-41 -118t-62.5 -106.5t-86 -76.5t-115 -29.5q-53 0 -91 18.5t-62.5 50t-36 72.5 t-11.5 84zM1554 172q0 -8 1 -25.5t8.5 -36t21.5 -31.5t43 -13q33 0 59.5 29.5t49 75.5t39 103.5t28 111.5t16.5 100t5 69q0 39 -14.5 69.5t-55.5 30.5q-45 0 -82 -55t-63.5 -132t-41 -159t-14.5 -135v-2z" />
<glyph unicode="&#x2039;" horiz-adv-x="448" d="M70 639l299 373h90l-193 -373l45 -373h-80z" />
<glyph unicode="&#x203a;" horiz-adv-x="448" d="M41 266l192 373l-45 373h80l162 -373l-299 -373h-90z" />
<glyph unicode="&#x2044;" horiz-adv-x="313" d="M-426 -10l1116 1380h111l-1114 -1380h-113z" />
<glyph unicode="&#x205f;" horiz-adv-x="449" />
<glyph unicode="&#x20ac;" horiz-adv-x="1118" d="M29 537l18 84h113q4 31 10 61.5t16 62.5h-114l18 86h123q37 106 96.5 204t139 172.5t181 118.5t224.5 44q104 0 171 -26.5t101 -43.5l-51 -98q-25 10 -76 34t-131 24t-149.5 -34t-125.5 -92.5t-100 -136t-75 -166.5h532l-16 -86h-543q-8 -31 -15 -61.5t-11 -62.5h503 l-16 -84h-496q-2 -23 -3 -45.5t-1 -45.5q0 -84 19.5 -148.5t53.5 -107.5t79 -65.5t96 -22.5q31 0 60.5 5.5t63.5 15.5t74 28.5t93 45.5l57 -105q-100 -51 -188 -81.5t-197 -30.5q-106 0 -184 41.5t-128 110.5t-74.5 160t-24.5 189v56h-123z" />
<glyph unicode="&#x2113;" horiz-adv-x="888" d="M25 369q47 35 89 65.5t83 65.5l100 518q25 129 67 217t93 142.5t107.5 78t111.5 23.5q57 0 96 -23.5t59.5 -65.5t22.5 -99.5t-10 -125.5q-35 -178 -168 -349t-334 -343l-14 -72q-29 -154 14 -220t121 -66q41 0 80 16t73.5 42t65.5 57.5t55 62.5l58 -66 q-86 -123 -184.5 -181t-204.5 -58q-80 0 -132.5 28.5t-80 75.5t-32.5 110.5t5 135.5q2 8 3 14t1 13q-27 -20 -57.5 -43t-61.5 -46zM373 631q137 131 239.5 266t128.5 270q16 88 -1 140.5t-85 52.5q-25 0 -53.5 -16.5t-56 -56.5t-53 -104.5t-43.5 -160.5z" />
<glyph unicode="&#x2122;" horiz-adv-x="1316" d="M170 1364v68h473v-68h-176v-537h-123v537h-174zM754 827v605h153l140 -431l139 431h153v-605h-120v496l-160 -496h-64l-157 496v-496h-84z" />
<glyph unicode="&#x2126;" horiz-adv-x="1286" d="M-12 0l22 131h264l2 6q-39 45 -70.5 106.5t-50 136.5t-20.5 162t17 185q27 139 90 255t151 200t196.5 131t225.5 47q123 0 210 -52.5t138 -138.5t65.5 -198.5t-9.5 -233.5q-18 -102 -57.5 -192t-87.5 -167t-103.5 -137.5t-108.5 -103.5l-2 -6h266l-24 -131h-440l18 96 q55 35 112.5 91.5t108.5 133t91 173t63 211.5q18 92 13 185t-37 168t-92 121t-153 46q-86 0 -164.5 -41t-141 -112t-108.5 -167t-67 -207q-20 -106 -17 -200.5t23.5 -172t55 -137t77.5 -92.5l-18 -96h-438z" />
<glyph unicode="&#x212e;" horiz-adv-x="1843" d="M233 674q0 143 60.5 270t165 221.5t245 148.5t300.5 54t301 -54t246.5 -148.5t166 -221.5t60.5 -270v-19h-1252q-10 0 -10 -8v-379q0 -23 16 -43q92 -94 213 -149.5t261 -55.5q152 0 278.5 62.5t218.5 167.5h111q-104 -123 -263 -195.5t-347 -72.5q-160 0 -300.5 54 t-245 148.5t-165 220t-60.5 269.5zM516 705q0 -4 3 -8.5t7 -4.5h959q4 0 6 4t2 9v380q0 27 -18 45q-92 90 -211 143.5t-258 53.5q-137 0 -258 -55t-213 -148q-18 -18 -19 -47v-372z" />
<glyph unicode="&#x2202;" horiz-adv-x="1001" d="M53 268q-6 80 10 164q20 113 70.5 205t116 155.5t142.5 98.5t155 35q59 0 104 -18.5t77 -45t50.5 -55.5t24.5 -49h2q4 16 8 38.5t8 39.5q23 117 15.5 216t-38 171.5t-82.5 112.5t-122 40q-84 0 -147.5 -29.5t-108.5 -62.5l-27 119q51 37 132 71.5t196 34.5q88 0 164 -43 t124 -132t61 -226t-23 -324q-35 -176 -94.5 -322.5t-141.5 -252t-182.5 -163.5t-216.5 -58q-90 0 -148.5 37.5t-90.5 100t-38 142.5zM217 430q-27 -135 13 -221t139 -86h2q61 0 119.5 40t108.5 107.5t91 153.5t68 178q-4 31 -18.5 64.5t-41 62.5t-64.5 47.5t-87 18.5 q-53 0 -106.5 -30t-97.5 -79t-78 -115.5t-48 -140.5z" />
<glyph unicode="&#x2206;" horiz-adv-x="1173" d="M-41 0l21 104l688 1270h182l188 -1268l-20 -106h-1059zM141 131h736l-111 698q-4 39 -11 87.5t-15.5 95.5t-13.5 92t-7 78h-8q-12 -29 -32 -68t-43.5 -83t-48 -90t-44.5 -85z" />
<glyph unicode="&#x220f;" horiz-adv-x="1435" d="M211 1194v145h1175v-145h-192v-1378h-154v1378h-483v-1378h-154v1378h-192z" />
<glyph unicode="&#x2211;" horiz-adv-x="1163" d="M205 -78l477 653l-457 652v112h871v-135h-658v-8l422 -594l-461 -629v-6h727v-151h-921v106z" />
<glyph unicode="&#x2212;" horiz-adv-x="1366" d="M158 612v121h1085v-121h-1085z" />
<glyph unicode="&#x2215;" horiz-adv-x="313" d="M-426 -10l1116 1380h111l-1114 -1380h-113z" />
<glyph unicode="&#x2219;" horiz-adv-x="505" d="M147 702l168 117l109 -170l-168 -114z" />
<glyph unicode="&#x221a;" horiz-adv-x="1216" d="M229 643l265 102l219 -682q10 -41 19 -80.5t13 -68.5h3q4 29 11 69t15 80l330 1534h115l-404 -1880h-133l-287 881l-135 -51z" />
<glyph unicode="&#x221e;" horiz-adv-x="1499" d="M158 549q0 63 22.5 118.5t61.5 94.5t93 61.5t118 22.5q104 0 185 -63.5t155 -153.5q35 39 70.5 77.5t76.5 69.5t89 50.5t108 19.5q61 0 111 -20.5t86 -59.5t55.5 -92t19.5 -117v-2q0 -70 -23.5 -125t-63.5 -94t-91 -59.5t-107 -20.5q-86 0 -163.5 51t-174.5 166 q-37 -43 -73.5 -82t-78.5 -69.5t-90 -48t-106 -17.5q-57 0 -108 22.5t-89 61.5t-60.5 92t-22.5 117zM260 547q0 -82 52.5 -139.5t138.5 -57.5h4q43 0 80.5 18.5t72.5 47t66 63.5t59 66q-31 39 -61.5 75.5t-66.5 66.5t-76 48.5t-89 18.5q-86 0 -133 -61.5t-47 -145.5z M844 553q45 -51 81 -89t69.5 -63.5t66.5 -38t69 -12.5q43 0 76 17.5t56.5 46t35 64.5t11.5 71q0 96 -51.5 150.5t-131.5 54.5h-2q-45 0 -86 -21.5t-75.5 -53.5t-64.5 -66.5t-54 -59.5z" />
<glyph unicode="&#x222b;" horiz-adv-x="841" d="M199 -283l24 117q12 -6 34 -13t48 -7q23 0 45.5 10t38.5 33q27 35 43.5 107.5t16.5 215.5q0 242 -13.5 491t-13.5 482q0 160 23.5 256t76.5 156q35 39 84 57t99 18q31 0 59.5 -7t42.5 -17l-23 -111q-29 18 -65 19q-25 0 -49.5 -11.5t-42.5 -35.5q-35 -41 -47.5 -122 t-12.5 -216q0 -229 12.5 -473t12.5 -486q0 -152 -21.5 -243t-54.5 -144q-33 -55 -85 -80.5t-109 -25.5q-37 0 -72 10t-51 20z" />
<glyph unicode="&#x2248;" horiz-adv-x="1079" d="M141 324q41 84 107.5 133t146.5 49q68 0 117 -26.5t86 -47.5q47 -25 85 -45t85 -20q55 0 93 35.5t77 101.5l61 -53q-37 -76 -94 -129.5t-143 -53.5q-55 0 -100.5 20.5t-110.5 57.5q-43 27 -82 45.5t-84 18.5q-66 0 -104.5 -43t-73.5 -97zM141 645q41 84 107.5 133 t146.5 49q68 0 118 -27.5t85 -47.5q49 -27 86 -45.5t84 -18.5q55 0 93 36t77 101l61 -53q-37 -78 -94 -130t-143 -52q-55 0 -100.5 19.5t-110.5 56.5q-41 27 -81 45t-87 18q-63 0 -102 -42t-74 -95z" />
<glyph unicode="&#x2260;" horiz-adv-x="1112" d="M186 311v101h308l118 266h-426v100h463l96 211l78 -35l-80 -176h277v-100h-313l-121 -266h434v-101h-473l-96 -215l-78 35l80 180h-267z" />
<glyph unicode="&#x2264;" horiz-adv-x="1140" d="M215 12v105h836v-105h-836zM225 610v107l819 420v-121l-714 -348v-4l714 -353v-121z" />
<glyph unicode="&#x2265;" horiz-adv-x="1140" d="M217 12v105h832v-105h-832zM227 190v121l715 351v4l-715 350v121l820 -420v-107z" />
<glyph unicode="&#x25ca;" horiz-adv-x="1216" d="M266 670l367 753h129l358 -753l-366 -754h-127zM410 674l247 -520q12 -29 20.5 -57.5t12.5 -47.5h6q4 20 14.5 52t18.5 49l248 516l-246 514q-10 27 -20.5 56.5t-14.5 51.5h-6q-6 -25 -14 -52.5t-21 -55.5z" />
<glyph unicode="&#x25fc;" horiz-adv-x="1024" d="M0 0v1024h1024v-1024h-1024z" />
</font>
</defs>
</svg>
